<?xml version="1.0" encoding="UTF-8"?><svg id="a" xmlns="http://www.w3.org/2000/svg" xmlns:xlink="http://www.w3.org/1999/xlink" viewBox="0 0 1440 360"><defs><style>.c{fill:none;}.d{opacity:.1;}.e{fill:#97d2f7;}.f,.g{fill:#3fa9f5;}.h,.g{opacity:.25;}.i{clip-path:url(#b);}</style><clipPath id="b"><rect class="c" y="-1" width="1440" height="361"/></clipPath></defs><g class="i"><polygon class="e" points="1441 361 120.08 361 0 360 0 0 1441 0 1441 361"/><g class="h"><path class="f" d="m408.15,194.31c7.94,11.12,8.8,25.86,6.87,39.39-1.92,13.53-6.31,26.64-7.8,40.22-3.43,31.2,8.52,61.9,11.22,93.17l-18.86-.07c-3.66-39.95-2.51-80.34,3.44-120.02,2.58-17.18,6.05-34.67,3-51.77l2.12-.92Z"/><path class="f" d="m406.85,195.07c13.18,18.66,6.05,42.7,1.62,62.97-1.25,5.7-2.33,11.45-2.89,17.27s-.59,11.77-.25,17.64c.68,11.66,2.79,23.18,5.05,34.62,2.58,13.1,5.39,26.19,6.57,39.51l1.5-1.5c-6.29-.02-12.57-.05-18.86-.07l1.5,1.5c-2.05-22.51-2.6-45.14-1.61-67.72.49-11.21,1.36-22.4,2.6-33.54s3.12-22.39,4.72-33.59c1.76-12.38,2.85-24.93.68-37.33l-.69,1.69,2.12-.92c1.77-.76.24-3.35-1.51-2.59l-2.12.92c-.64.28-.79,1.09-.69,1.69,1.92,10.99,1.13,22.23-.33,33.22s-3.43,22.12-4.75,33.24c-2.65,22.28-3.8,44.73-3.44,67.16.2,12.61.88,25.21,2.03,37.76.07.81.63,1.5,1.5,1.5,6.29.02,12.57.05,18.86.07.76,0,1.57-.69,1.5-1.5-2.09-23.74-9.35-46.68-11.35-70.43-.49-5.86-.65-11.75-.3-17.63s1.33-11.96,2.57-17.86c2.39-11.4,5.64-22.7,6.38-34.38.72-11.5-1.01-23.63-7.79-33.24-1.1-1.56-3.71-.07-2.59,1.51Z"/></g><g class="h"><path class="f" d="m420.9,191.18c10.26,18.29,13.3,40.52,8.32,60.89-2.81,11.51-8.1,22.65-7.98,34.5.14,13.73,7.47,26.21,11.41,39.36,3.76,12.55,4.42,26.02,1.91,38.87l14.76,2.46c4.69-32.06-16.71-64.95-7.43-95.98,3.19-10.65,9.87-20.3,11.02-31.35,2.13-20.48-14.78-37.42-30.27-50.98l-1.73,2.22Z"/><path class="f" d="m419.6,191.93c5.43,9.74,8.85,20.58,10,31.67s-.06,22.49-3.28,33.36c-3.33,11.24-7.74,22.44-6.26,34.38,1.41,11.4,6.78,21.69,10.35,32.48,4.33,13.06,5.3,27.07,2.7,40.59-.14.73.2,1.7,1.05,1.85,4.92.82,9.84,1.64,14.76,2.46.72.12,1.72-.18,1.85-1.05,3.73-26.1-8.73-50.64-9.68-76.43-.23-6.19.28-12.39,1.92-18.37,1.78-6.49,4.89-12.49,7.45-18.68s4.33-12.26,4.13-18.8c-.18-5.73-1.78-11.28-4.26-16.42-5.97-12.38-16.44-22.15-26.62-31.08-.55-.48-1.6-.67-2.12,0l-1.73,2.22c-1.17,1.51.94,3.64,2.12,2.12l1.73-2.22h-2.12c9.02,7.91,18.1,16.35,24.2,26.8,2.85,4.89,5.01,10.31,5.62,15.97.67,6.3-.65,12.36-2.89,18.22s-5.39,11.87-7.47,18.04c-1.97,5.84-2.89,12-2.99,18.16-.21,12.67,2.83,25.14,5.6,37.41,3.11,13.79,6.26,28.06,4.24,42.25l1.85-1.05c-4.92-.82-9.84-1.64-14.76-2.46l1.05,1.85c2.34-12.15,2.01-24.75-1.09-36.74-2.92-11.28-8.66-21.64-11.13-33.04-1.25-5.78-1.33-11.62-.25-17.44s3.09-11.78,4.89-17.59c3.42-11.02,5.24-22.24,4.45-33.8-.87-12.67-4.48-25.07-10.67-36.17-.94-1.69-3.53-.18-2.59,1.51Z"/></g><g class="h"><path class="f" d="m483.93,371.24c-1.76-21.67-4.21-45.03-18.75-61.19-3.95-4.38-8.92-8.55-9.78-14.39-1.56-10.61,10.65-17.27,17.28-25.71,8.66-11.02,7.84-26.71,4.5-40.32-3.34-13.61-8.8-27.07-8.03-41.06l-3.03-.42c-6.96,6.18-6,17.39-2.57,26.05s8.81,16.92,8.97,26.23c.37,21.08-25.8,37.12-21.86,57.83,2.59,13.61,17.48,22.11,20.62,35.6,2.55,10.96-3.3,21.95-8.95,31.68l21.6,5.69Z"/><path class="f" d="m485.43,371.24c-1.07-13.14-2.28-26.48-6.36-39.09-1.98-6.11-4.65-12.05-8.28-17.36-1.75-2.56-3.72-4.94-5.84-7.2s-4.47-4.54-6.15-7.24c-7.01-11.25,6.37-19.85,12.99-27.06,4.17-4.55,6.98-9.97,8.26-16.02,1.36-6.43,1.17-13.05.25-19.53-2.36-16.57-10.5-32.15-9.64-49.18.03-.58-.48-1.36-1.1-1.45l-2.51-.34c-.36-.05-.76-.15-1.12-.1-.8.11-1.44.93-1.96,1.5-2.13,2.35-3.5,5.31-4.09,8.41-1.26,6.56.27,13.33,2.81,19.39,3.03,7.24,7.41,14.35,8.22,22.31.6,5.95-1.12,11.69-3.76,16.96-5.25,10.47-13.75,19.41-17.15,30.78-1.65,5.53-1.65,11.44.47,16.85,2.36,6.01,6.59,10.94,10.58,15.92,3.99,4.98,7.98,10.33,9.08,16.77,1.41,8.27-2.13,16.51-5.94,23.64-1,1.88-2.06,3.73-3.13,5.57-.48.83-.04,1.96.9,2.2,6.29,1.66,12.58,3.31,18.87,4.97.91.24,1.82.48,2.73.72,1.87.49,2.67-2.4.8-2.89-6.29-1.66-12.58-3.31-18.87-4.97-.91-.24-1.82-.48-2.73-.72l.9,2.2c3.97-6.85,8.02-14.08,9.33-21.99,1.15-6.98-.3-13.6-3.97-19.61-6-9.83-17.12-18.07-17.23-30.53-.1-11.1,7.8-20.67,13.44-29.57,2.98-4.71,5.81-9.62,7.46-14.98,1.91-6.22,1.65-12.57-.37-18.74-2.3-7.02-6.35-13.35-8.45-20.43-1.69-5.67-2.41-12.51.62-17.87.72-1.28,1.64-2.38,2.72-3.36l-1.46.39,3.03.42-1.1-1.45c-.78,15.42,5.66,29.71,8.78,44.52,2.56,12.14,2.97,26.49-5.44,36.57-6.48,7.77-19.1,14.96-16.98,26.77,1.12,6.22,6.4,10.49,10.37,14.97,4.27,4.82,7.56,10.48,9.96,16.44,5.53,13.75,6.91,28.76,8.09,43.4.16,1.91,3.16,1.93,3,0Z"/></g><g class="h"><path class="f" d="m1172.92,240.9c-7.6,11.12-8.41,25.86-6.57,39.39,1.84,13.53,6.03,26.64,7.46,40.22,3.28,31.2-8.15,61.9-10.73,93.17l18.04-.07c3.5-39.95,2.4-80.34-3.29-120.02-2.46-17.18-5.79-34.67-2.87-51.77l-2.03-.92Z"/><path class="f" d="m1174.16,241.66c-12.6,18.66-5.79,42.7-1.54,62.97,1.19,5.7,2.23,11.45,2.76,17.27s.56,11.77.24,17.64c-.65,11.66-2.67,23.18-4.83,34.62-2.47,13.1-5.16,26.19-6.28,39.51l-1.43-1.5c6.01-.02,12.02-.05,18.04-.07l-1.43,1.5c1.96-22.51,2.48-45.14,1.54-67.72-.47-11.21-1.3-22.4-2.49-33.54-1.2-11.25-2.99-22.39-4.51-33.59-1.68-12.38-2.72-24.93-.65-37.33l.66,1.69-2.03-.92c-1.69-.76-.23-3.35,1.45-2.59l2.03.92c.61.28.76,1.09.66,1.69-1.84,10.99-1.08,22.23.32,33.22s3.28,22.12,4.54,33.24c2.53,22.28,3.63,44.73,3.29,67.16-.19,12.61-.84,25.21-1.94,37.76-.07.81-.6,1.5-1.43,1.5-6.01.02-12.02.05-18.04.07-.73,0-1.5-.69-1.43-1.5,2-23.74,8.94-46.68,10.85-70.43.47-5.86.62-11.75.29-17.63s-1.27-11.96-2.46-17.86c-2.29-11.4-5.4-22.7-6.1-34.38-.69-11.5.97-23.63,7.45-33.24,1.06-1.56,3.55-.07,2.48,1.51Z"/></g><g class="h"><path class="f" d="m1160.72,237.76c-9.81,18.29-12.71,40.52-7.95,60.89,2.69,11.51,7.75,22.65,7.63,34.5-.13,13.73-7.15,26.21-10.92,39.36-3.6,12.55-4.23,26.02-1.82,38.87l-14.11,2.46c-4.48-32.06,15.98-64.95,7.1-95.98-3.05-10.65-9.44-20.3-10.54-31.35-2.03-20.48,14.14-37.42,28.95-50.98l1.66,2.22Z"/><path class="f" d="m1161.96,238.52c-5.19,9.74-8.46,20.58-9.56,31.67s.06,22.49,3.14,33.36c3.19,11.24,7.4,22.44,5.99,34.38-1.35,11.4-6.48,21.69-9.9,32.48-4.14,13.06-5.07,27.07-2.58,40.59.13.73-.19,1.7-1,1.85-4.7.82-9.41,1.64-14.11,2.46-.69.12-1.65-.18-1.76-1.05-3.57-26.1,8.35-50.64,9.26-76.43.22-6.19-.27-12.39-1.83-18.37-1.7-6.49-4.67-12.49-7.12-18.68-2.37-5.99-4.14-12.26-3.95-18.8.17-5.73,1.7-11.28,4.07-16.42,5.71-12.38,15.72-22.15,25.46-31.08.53-.48,1.53-.67,2.03,0l1.66,2.22c1.12,1.51-.89,3.64-2.03,2.12l-1.66-2.22h2.03c-8.63,7.91-17.31,16.35-23.14,26.8-2.73,4.89-4.8,10.31-5.38,15.97-.65,6.3.62,12.36,2.76,18.22s5.15,11.87,7.15,18.04c1.89,5.84,2.77,12,2.86,18.16.2,12.67-2.7,25.14-5.35,37.41-2.98,13.79-5.99,28.06-4.05,42.25l-1.76-1.05c4.7-.82,9.41-1.64,14.11-2.46l-1,1.85c-2.24-12.15-1.92-24.75,1.04-36.74,2.79-11.28,8.28-21.64,10.65-33.04,1.2-5.78,1.27-11.62.24-17.44s-2.96-11.78-4.68-17.59c-3.27-11.02-5.01-22.24-4.25-33.8.83-12.67,4.29-25.07,10.2-36.17.9-1.69,3.38-.18,2.48,1.51Z"/></g><g class="h"><path class="f" d="m1100.44,417.83c1.68-21.67,4.02-45.03,17.93-61.19,3.77-4.38,8.53-8.55,9.35-14.39,1.49-10.61-10.19-17.27-16.53-25.71-8.28-11.02-7.5-26.71-4.3-40.32,3.19-13.61,8.42-27.07,7.68-41.06l2.9-.42c6.66,6.18,5.74,17.39,2.46,26.05s-8.43,16.92-8.58,26.23c-.35,21.08,24.68,37.12,20.9,57.83-2.48,13.61-16.71,22.11-19.72,35.6-2.44,10.96,3.16,21.95,8.56,31.68l-20.65,5.69Z"/><path class="f" d="m1099.01,417.83c1.02-13.14,2.18-26.48,6.08-39.09,1.89-6.11,4.44-12.05,7.92-17.36,1.67-2.56,3.56-4.94,5.59-7.2,2.07-2.3,4.28-4.54,5.88-7.24,6.7-11.25-6.09-19.85-12.42-27.06-3.99-4.55-6.68-9.97-7.9-16.02-1.3-6.43-1.12-13.05-.24-19.53,2.26-16.57,10.04-32.15,9.22-49.18-.03-.58.46-1.36,1.05-1.45l2.4-.34c.35-.05.72-.15,1.07-.1.76.11,1.38.93,1.87,1.5,2.04,2.35,3.34,5.31,3.92,8.41,1.21,6.56-.26,13.33-2.69,19.39-2.9,7.24-7.09,14.35-7.86,22.31-.58,5.95,1.07,11.69,3.6,16.96,5.02,10.47,13.15,19.41,16.41,30.78,1.58,5.53,1.58,11.44-.45,16.85-2.25,6.01-6.3,10.94-10.12,15.92s-7.63,10.33-8.68,16.77c-1.35,8.27,2.04,16.51,5.68,23.64.96,1.88,1.97,3.73,2.99,5.57.46.83.04,1.96-.86,2.2-6.02,1.66-12.03,3.31-18.05,4.97-.87.24-1.74.48-2.61.72-1.79.49-2.55-2.4-.76-2.89,6.02-1.66,12.03-3.31,18.05-4.97.87-.24,1.74-.48,2.61-.72l-.86,2.2c-3.79-6.85-7.67-14.08-8.92-21.99-1.1-6.98.29-13.6,3.79-19.61,5.74-9.83,16.37-18.07,16.48-30.53.09-11.1-7.46-20.67-12.85-29.57-2.85-4.71-5.56-9.62-7.13-14.98-1.82-6.22-1.58-12.57.35-18.74,2.2-7.02,6.07-13.35,8.08-20.43,1.61-5.67,2.31-12.51-.59-17.87-.69-1.28-1.57-2.38-2.6-3.36l1.4.39-2.9.42,1.05-1.45c.74,15.42-5.41,29.71-8.4,44.52-2.45,12.14-2.84,26.49,5.2,36.57,6.2,7.77,18.27,14.96,16.24,26.77-1.07,6.22-6.12,10.49-9.92,14.97-4.08,4.82-7.23,10.48-9.52,16.44-5.29,13.75-6.6,28.76-7.74,43.4-.15,1.91-3.02,1.93-2.87,0Z"/></g><path class="g" d="m0,322.75s56.16-7.18,70.56-11.47,17.28-6.65,44.64-6.19c27.36.46,62.2,4.76,73.58,5.24,11.38.48,3.33,1.39,30.39-1.46,27.06-2.84,24.31-9.28,53.1-5.92,28.79,3.36,28.05,6.88,54.13,8.35,26.08,1.47,55.13,3.11,55.13,3.11,0,0,14.42-2.66,30.21-3.58,15.79-.92,4.66-8.33,28.65-5.76,23.98,2.56,16.09,1.16,37.6-1.04,21.5-2.19,49.83-.31,56.21,2.11,6.38,2.42,28.05,4.81,45.72,3.3,17.67-1.5,4.43-1.99,33.37-3.42,28.94-1.43,22.34-4.26,69.56-.93,47.22,3.33,65.84,2.51,87.49,7.7,21.65,5.18-1.13,9.48,50.58,10.91,51.71,1.44,78.16,2.42,108.14,1.45,29.97-.97,78.93-6.66,103.41-7.16,24.48-.49,40.27-4.87,83.49.9,43.23,5.77,28.99,11.5,89.39,9.11,60.4-2.39,67.52-3.03,73.32-3.18,5.8-.16,49.04-.68,59.1-1.61,10.06-.93,17.26-.93,31.66-.45,14.4.47,24.48-1.06,34.56-3.4s36,3.01,36,3.01v37.64H0v-37.25Z"/><g class="h"><path class="f" d="m943.47,360.14s-64.39-115.84-77.53-126.24c-10.01-7.92-38.14-74-58.52-120.17-2.47-5.59-11.86-1-14.12-6.18-7.63-17.52-13.8-32.06-16.99-39.55-6.51-15.28-44-8.23-50.13,0-3.15,4.23-25.4,66.56-39.56,96.1-4.55,9.49-34.43,15.55-46.71,20.42-11.85,4.7-43.68,94.36-52.89,100.87-50.9,35.99-63.49,68.17-73.6,74.71h430.05v.03Z"/><path class="d" d="m943.45,360.11h-256.18c15.47-15.36,48.46-48.62,51.34-55.77,3.78-9.35,8.69-77.02,10.1-85.98,1.41-8.97,27.64-62.58,28.73-72.24,1.09-9.57-3.25-79.98-3.34-81.42v-.02s.04.03.06.07c.1.08.19.18.28.3.11.12.21.24.32.39.11.13.21.27.3.39.09.13.18.25.26.39.1.15.2.3.29.45.03.07.07.12.11.18.08.13.16.27.23.42.05.1.1.18.14.29.07.17.15.3.21.47.15.35.3.71.47,1.09.16.39.34.79.51,1.19.17.4.36.84.54,1.28.19.44.39.89.58,1.36,3.46,8.09,8.69,20.37,14.89,34.61.08.18.17.37.28.52.09.17.19.3.3.42.12.17.26.3.41.44.11.1.22.18.34.27,0,0,.84,33.9.66,36.91-.18,3.01-7.75,24.53-8.2,29.2-.45,4.68.68,22.66-.05,26.51-.42,2.24-7.99,25.79-9.98,31.56-.55,1.56,5.44.54,5.6.54.76,0,7.83-20.94,9.19-22.44,1.36-1.51,2.49-29.66,3.43-31.8.95-2.15,10.17-25.44,11.37-28.01,1.21-2.56.76-37.94.76-37.94,3.82,8.65,7.92,18,12.11,27.56,1.04,2.37,2.1,4.78,3.16,7.17.35.79.71,1.6,1.06,2.41.97,2.2,1.94,4.41,2.92,6.59,1.33,2.99,2.66,5.97,3.99,8.93.67,1.48,1.32,2.96,1.99,4.42.66,1.46,1.31,2.91,1.97,4.36.65,1.45,1.31,2.89,1.96,4.31,2.6,5.7,5.15,11.19,7.61,16.37.62,1.3,1.22,2.57,1.83,3.82,4.66,9.67,8.94,18.03,12.55,24.16.59.99,1.16,1.94,1.71,2.81.38.61.75,1.18,1.11,1.72.22.34.44.66.65.96.64.93,1.25,1.75,1.82,2.44,0,0-22.59,25.08-25.93,32.2-3.33,7.1-11.45,52.25-14.06,57.43-2.6,5.2-19.97,25.94-19.25,27.62.72,1.7,32.77-8.43,36.4-18.17,3.63-9.74,11.37-46.67,14.96-51.68,2.74-3.84,15.77-20.58,22.85-28.5,30.25,46.38,63.35,107.78,64.64,109.44Z"/><path class="d" d="m699.17,246.53c-.99,1.14-19.34-6.32-20.44-6.82-1.09-.49-7.07-23.05-8.23-22.65-1.17.39-16.34-6.21-18.38-9.11-2.04-2.91-7.34-24.72-7.34-24.72h.05s1.95-.79,5-2.02c11.34-3.47,26.09-7.64,33.19-13.05.39,4.69,2.22,27.68,1.88,31.27-.39,4.02-3.39,13.33-2.48,16.29.91,2.94,17.76,29.68,16.76,30.82Z"/><path class="f" d="m831.76,360.12s-115.85-41.72-130.53-47.17c-6.27-2.33-45.14-66.71-48.67-70.47-5.5-5.87-23.7-12-33.39-22.78-2.28-2.54-16.83-20.66-18.05-21.85-3.67-3.6-17.99-2.8-25.29-2.8-7.95,0-68.94,93.91-75.29,101.81-6.35,7.9-40.72,36.4-51.36,39.29-10.64,2.89-39.98,23.96-39.98,23.96h422.57Z"/><path class="d" d="m585.08,299.73c-1.47-1.31-1.94-16.69-2.39-19.46-.42-2.6-21.24-27.12-21.43-30.61-.18-3.49,14.57-54.61,14.57-54.61-7.96,0-68.95,93.92-75.3,101.81-.4.49-.91,1.06-1.51,1.71-.3.33-.63.66-.98,1.01-1.22,1.25-2.72,2.68-4.42,4.25-.49.45-.99.91-1.52,1.38-.78.71-1.59,1.44-2.44,2.18-.56.49-1.13,1-1.73,1.5-.88.76-1.79,1.54-2.72,2.33-.62.53-1.25,1.05-1.89,1.58-1.91,1.59-3.88,3.2-5.88,4.79-7.34,5.85-15.02,11.49-20.96,15.05-.54.31-1.07.63-1.57.91-.5.29-1,.55-1.48.8-.71.37-1.39.7-2.02.98-.42.19-.81.34-1.19.49-.38.14-.73.25-1.07.34-.67.17-1.4.44-2.2.75-.4.15-.82.33-1.25.51-.42.19-.87.39-1.32.6-.45.21-.92.44-1.4.68-.48.24-.96.49-1.47.75-.99.51-2.03,1.08-3.09,1.68-1.07.59-2.15,1.23-3.26,1.88-.82.49-1.66.99-2.5,1.5-.28.16-.55.34-.84.51-.56.34-1.12.69-1.68,1.04-.28.18-.56.35-.84.53-.56.35-1.11.7-1.67,1.06-9.69,6.18-18.47,12.48-18.47,12.48h253.88c-25.55-19.46-76.92-59.42-77.99-60.39Zm-58.05-4.62c-.83-.3-6.36-8.56-7.14-8.84-.78-.25-2.44-6.78-2.02-7.09.41-.3,2.96-1.65,3.38-1.74.41-.07,2.64,3.99,3.05,3.99s8.09,0,8.84.61c.74.59,6.6,12.04,6.38,13.07-.31,1.35-11.67.3-12.49,0Z"/><path class="f" d="m998,360.14h-413.72s75.58-18.1,103.29-18.1,71.17.64,71.17.64c0,0,50.98-17.45,84.36-17.45s154.9,34.91,154.9,34.91Z"/><path class="f" d="m361.16,360.14h468.67s-85.61-26.7-117.01-26.7-80.62.95-80.62.95c0,0-57.75-25.75-95.56-25.75s-175.48,51.5-175.48,51.5Z"/></g></g></svg>