<?xml version="1.0" encoding="UTF-8"?><svg id="a" xmlns="http://www.w3.org/2000/svg" viewBox="0 0 117.53 120"><defs><style>.b{fill:rgba(255,255,255,.5);}</style></defs><path class="b" d="m115.86,33.6c-2.24-2.73-6.18-3.51-9.5-2.81-4.53.96-7.69,5.01-9.74,8.88-1.74,3.28-3.9,11.4-9.12,9.72-.36-.12-.68-.09-.94.02-4.4-1.67-8.39-4.15-12.07-7.15-2.04-1.67-4.14-3.36-5.96-5.27-1.59-1.66-2.89-3.64-2.85-6.02.04-2.45,1.36-4.68,2.58-6.73,1.28-2.15,2.59-4.28,3.46-6.64.28-.16.49-.44.57-.87.41-2.18.88-4.35,1.21-6.55.29-2,.35-4.07-.54-5.94-1.69-3.52-5.84-4.75-9.46-4.09-7.47,1.36-12.01,8.58-14.52,15.12-1.75,4.56-2.91,9.36-3.79,14.16-.02.1-.02.19-.02.29-2.59,1.91-4.62,4.44-6.38,7.13-1.88,2.88-3.63,5.79-7.08,6.9-3.24,1.05-6.81,1.16-9.64,3.27-2.66,1.98-4.07,5-5.64,7.82-1.68,3.02-3.97,5.26-6.45,7.62-2.9,2.77-5.11,5.73-6.23,9.64-1.12,3.91-1.36,8.13-3.45,11.7-.29.49-.25.97-.04,1.36-.38.63-.37,1.54.41,2.07,4.49,3,8.97,6,13.46,9,4.1,2.74,8.14,5.78,12.63,7.87,4.4,2.06,8.9,2.52,13.7,2.56,4.88.04,9.48.22,13.79,2.75,2.38,1.4,4.57,3.12,6.79,4.76,2.38,1.76,4.76,3.52,7.14,5.28.12.09.24.15.35.19.73.59,2.03.51,2.35-.67,1.27-4.69,6.95-5.94,10.79-7.73,4.09-1.9,7.4-5.02,10.04-8.63,5.96-8.12,8.16-18.36,12.31-27.4,2.2-4.78,4.74-9.36,7.3-13.96,2.52-4.54,4.21-9.18,5.12-14.3.44-2.47.93-5.01,1.08-7.52.12-2.1-.3-4.18-1.65-5.83ZM64.61,7.3c2.2,2.25-.35,6.27-1.76,8.28-1.02,1.46-2.06,2.92-3.18,4.32-1.07-4.73.88-9.87,4.94-12.59Zm44.49,31.27c.03,1.86-.53,3.68-1.35,5.4-1.06,2.22-2.39,4.76-4.1,6.55-.97,1.01-2.24,1.34-3.57,1.4,1.63-5.23,4.77-9.91,9.03-13.36Z"/><path d="m115.86,33.6c-2.24-2.73-6.18-3.51-9.5-2.81-4.53.96-7.69,5.01-9.74,8.88-1.74,3.28-3.9,11.4-9.12,9.72-.36-.12-.68-.09-.94.02-4.4-1.67-8.39-4.15-12.07-7.15-2.04-1.67-4.14-3.36-5.96-5.27-1.59-1.66-2.89-3.64-2.85-6.02.04-2.45,1.36-4.68,2.58-6.73,1.28-2.15,2.59-4.28,3.46-6.64.28-.16.49-.44.57-.87.41-2.18.88-4.35,1.21-6.55.29-2,.35-4.07-.54-5.94-1.69-3.52-5.84-4.75-9.46-4.09-7.47,1.36-12.01,8.58-14.52,15.12-1.75,4.56-2.91,9.36-3.79,14.16-.02.1-.02.19-.02.29-2.59,1.91-4.62,4.44-6.38,7.13-1.88,2.88-3.63,5.79-7.08,6.9-3.24,1.05-6.81,1.16-9.64,3.27-2.66,1.98-4.07,5-5.64,7.82-1.68,3.02-3.97,5.26-6.45,7.62-2.9,2.77-5.11,5.73-6.23,9.64-1.12,3.91-1.36,8.13-3.45,11.7C0,84.3.04,84.78.25,85.16c-.38.63-.37,1.54.41,2.07,4.49,3,8.97,6,13.46,9,4.1,2.74,8.14,5.78,12.63,7.87,4.4,2.06,8.9,2.52,13.7,2.56,4.88.04,9.48.22,13.79,2.75,2.38,1.4,4.57,3.12,6.79,4.76,2.38,1.76,4.76,3.52,7.14,5.28.12.09.24.15.35.19.73.59,2.03.51,2.35-.67,1.27-4.69,6.95-5.94,10.79-7.73,4.09-1.9,7.4-5.02,10.04-8.63,5.96-8.12,8.16-18.36,12.31-27.4,2.2-4.78,4.74-9.36,7.3-13.96,2.52-4.54,4.21-9.18,5.12-14.3.44-2.47.93-5.01,1.08-7.52.12-2.1-.3-4.18-1.65-5.83Zm-2.15,12.13c-.41,2.37-.91,4.73-1.66,7.01-.81,2.47-1.99,4.77-3.24,7.04-2.44,4.4-4.88,8.78-7.01,13.34-2.11,4.54-3.84,9.21-5.59,13.89-1.66,4.45-3.47,8.89-6.12,12.86-2.82,4.21-6.48,7.46-11.17,9.42-3.82,1.6-8.12,3.28-10.1,7.03-3.8-2.83-7.55-5.78-11.49-8.4-1.93-1.28-3.99-2.4-6.21-3.08-2.32-.71-4.77-.94-7.19-1.03-4.79-.17-9.55.17-14.13-1.54-4.49-1.69-8.45-4.69-12.41-7.34-4.85-3.24-9.7-6.49-14.55-9.73,1.88-3.27,2.41-6.97,3.26-10.59.42-1.79.92-3.57,1.82-5.19.89-1.6,2.12-2.95,3.42-4.23,2.51-2.47,5.13-4.73,6.96-7.78,1.66-2.77,2.88-6.28,5.65-8.17,3.01-2.06,7.01-1.84,10.28-3.36,3.27-1.53,5.15-4.64,7.05-7.55,2.07-3.16,4.56-6.03,8.02-7.7,1.84-.89,3.8-1.51,5.58-2.52,1.57-.9,3.02-2.06,4.31-3.32,1.5-1.48,2.82-3.13,4.07-4.82,1.3-1.74,2.67-3.5,3.7-5.42,1.82-3.37,2.08-7.98-1.51-10.28-.44-.28-1.02-.24-1.47,0-6.15,3.38-9.17,11.37-6.67,17.95.03.08.07.14.1.21-.51.52-1.03,1.02-1.59,1.48-2.2,1.85-4.86,2.72-7.39,3.9,1.17-5.9,2.8-11.97,5.92-17.09,1.54-2.53,3.54-4.82,6.13-6.32,2.66-1.54,6.47-2.41,8.95-.04,1.45,1.38,1.46,3.41,1.19,5.27-.3,2.07-.75,4.13-1.15,6.19-.19.16-.36.38-.46.67-1.67,4.85-5.86,8.69-6.26,14-.45,5.91,4.9,9.93,8.95,13.29,4.81,4,10.01,7.28,16.02,9.16,2.97.93,6.05,1.51,9.15,1.76,2.73.22,5.73.42,8-1.38,1.17-.93,2.01-2.18,2.81-3.42.93-1.44,1.82-2.9,2.56-4.45,1.48-3.1,2.34-6.48,1.3-9.86-.26-.84-1.33-1.42-2.14-.87-5.98,4.07-10.39,10.13-12.36,17.08-.13-.01-.26-.02-.39-.04-1.35-.12-2.68-.31-4.01-.58,1.6-1.11,2.91-2.76,3.8-4.46,1.94-3.73,3.25-7.81,6.4-10.77,2.44-2.29,6.06-3.37,9.16-1.73,1.52.8,2.46,2.15,2.56,3.89.16,2.5-.48,5.17-.9,7.63ZM64.61,7.3c2.2,2.25-.35,6.27-1.76,8.28-1.02,1.46-2.06,2.92-3.18,4.32-1.07-4.73.88-9.87,4.94-12.59Zm35.46,44.63c1.63-5.23,4.77-9.91,9.03-13.36.03,1.86-.53,3.68-1.35,5.4-1.06,2.22-2.39,4.76-4.1,6.55-.97,1.01-2.24,1.34-3.57,1.4Z"/></svg>