<?xml version="1.0" encoding="UTF-8"?><svg id="Capa_1" xmlns="http://www.w3.org/2000/svg" viewBox="0 0 60 23.92"><defs><style>.cls-1{fill:#93278f;}</style></defs><path class="cls-1" d="m58.91,13.63c-.95-.82-2.04-1.51-3.12-2.15-2.16-1.26-4.5-2.24-6.92-2.87-1.31-.34-2.64-.58-3.98-.73-.06-.07-.16-.13-.28-.14-2.51-.32-5.05-.43-7.58-.37.14-.14.19-.37.02-.56-1.29-1.35-2.53-2.76-3.71-4.22-.29-.36-.58-.73-.87-1.1-.24-.32-.48-.64-.78-.91-.47-.41-1.11-.65-1.71-.49-.14-.11-.35-.14-.51.02-.58.57-1.03,1.26-1.31,2.03-.3.8-.32,1.61-.33,2.45-.03,1.69-1,3.13-1.95,4.47-1.5.43-3.05.63-4.6.75-1.68.13-3.36.25-5.04.32-3.35.14-6.75.06-10-.87-1.77-.51-3.49-1.18-5.33-1.38-.24-.03-.37.14-.38.33-.05.08-.07.19-.02.31.94,2.4,2.76,4.4,5.06,5.55-1.43.68-2.91,1.37-4.12,2.39-1,.84-1.93,2.35-1.17,3.6-.04.19.03.39.27.44,1.83.37,3.63-.33,5.28-1.05,1.67-.73,3.25-1.61,4.81-2.55,2.42-.65,4.96-.59,7.45-.47-.16,1.6-.93,3.1-2.09,4.2-.05.03-.09.06-.12.11-.04.03-.07.07-.11.11-.39.34.18.9.56.56.02-.02.04-.04.06-.06.65-.05,1.19-.44,1.74-.77.65-.4,1.35-.72,2.02-1.08,1.19-.63,2.38-1.45,2.93-2.72,0,0,0-.01,0-.02,1.05.09,2.1.18,3.15.27.19,1.53.36,3.12-.13,4.61-.45,0-.62.68-.14.77.86.16,1.63-.18,2.39-.54.74-.35,1.47-.7,2.16-1.13,1.21-.76,2.25-1.78,2.76-3.13,2.39.16,4.78.24,7.17.19,0,.02,0,.04,0,.07.6,2.12,1.34,4.4,3.22,5.71.33.72,1.22.02,1.65-.26.61-.4,1.18-.87,1.57-1.49.82-1.32.55-2.92.84-4.38,0-.04,0-.07,0-.11,1.47-.06,2.94-.04,4.4.21.25.04.43-.13.48-.32.71-.02,1.42-.04,2.13-.05h.8s0-.01,0-.02c.12,0,.24-.02.36,0,2.59.2,3.97-.86,3.97-.86.39-.96-.22-2.03-.97-2.68ZM31.22,1.66s0,.01-.01.02c0,0,0,0-.01-.01h0s.03,0,.04,0Zm-1.25,16.25h0s0,0,0-.01c0,0,0,0,0,.01Zm.87-15.98s-.03.02-.04.04c0,0,0-.01,0-.02.02-.01.05-.02.05-.02Zm-.07,0h0s0,0,0,0c0,0,0,0,.01,0Zm-.18-1.07h-.01s0,0-.01,0c0,0,.02,0,.03,0Zm-10.89,16.26h0s0,0,0-.01c0,0,0,0,0,.01Zm-.76,2.11s-.04-.04-.03-.04c.02.02.03.02.04.03,0,0-.01,0-.02,0Zm.74-2.08s0,0,0-.01c.02,0,.05.02.05.02-.01,0-.03,0-.05-.01Zm.48.14s0,0,0-.01h0s.02,0,.03.01c0,0,0,0-.02,0Zm9.02,3.3s-.02,0-.02-.01c0,0,.02,0,.03,0,0,0,0,0-.01,0Zm.12-.06s-.01,0-.01-.01c0,0,.01,0,.02,0,0,0,0,0,0,0Zm.09-.05s-.01,0-.02,0c.03,0,0-.02.04,0,0,0-.02.01-.03.02Zm.56-2.53s0,0,0-.01c.02,0,.05.02.05.02-.02,0-.03,0-.05,0Zm.49.09s0,0,0-.01h0s.03,0,.04.01c0,0,0,0-.02,0Z"/><path d="m54.69,12.94c-.81-.38-1.77-.62-2.67-.47-.8.14-1.57.87-1.34,1.75.11.4.41.76.71,1.03.31.27.66.49,1.05.61.75.24,1.56.07,2.16-.44.63-.54.93-1.68.24-2.3-.03-.08-.08-.15-.16-.18Zm-1.42,1.49s.03-.04.05-.06c0,0,0,0,.01-.01.01.06.03.11.07.16-.02,0-.05-.01-.07-.02-.03,0-.06-.02-.09-.03,0-.01.02-.02.02-.04Zm.82-.05c.03-.05-.02,0-.03.02,0,0,0,0,0,0,.02-.04.05-.08.05-.13,0,.02,0,.04,0,.05,0,0,0,0,0,0,0-.02,0-.02,0,0,0,.05,0,.03,0,0,0,.01,0,.02-.02.05Zm-.09,0h0s0-.01-.01-.03c0,0,0,.02.01.03Zm-.37-.23s.06-.01,0,0c0,0,0,0,0,0Zm.41.29s.01,0,0,0c0,0,0,0,0,0Zm-.86,0s0,0-.02-.01c0,0,0,0,0,0,0,0,.02.01.02.01,0,0,0,0,0,0Zm-.02-.01s0,0,0,0c0,0-.01-.01-.02-.01.02,0,.01,0,.02.01Zm-1.63-.23c-.29-.48.19-.85.64-.94.42-.08.89-.02,1.34.1-.18.05-.35.12-.5.23-.2.15-.38.32-.5.55-.09.17-.14.37-.09.56.05.17.16.3.3.4.03.02.06.03.09.05,0,0,0,0,0,0-.53-.12-1.01-.48-1.29-.94Z"/><path d="m55.55,17.2s0-.01,0-.02c.12,0,.24-.02.36,0,2.59.2,3.97-.86,3.97-.86.39-.96-.22-2.03-.97-2.68-.95-.82-2.04-1.51-3.12-2.15-2.16-1.26-4.5-2.24-6.92-2.87-1.31-.34-2.64-.58-3.98-.73-.06-.07-.16-.13-.28-.14-2.51-.32-5.05-.43-7.58-.37.14-.14.19-.37.02-.56-1.29-1.35-2.53-2.76-3.71-4.22-.29-.36-.58-.73-.87-1.1-.24-.32-.48-.64-.78-.91-.47-.41-1.11-.65-1.71-.49-.14-.11-.35-.14-.51.02-.58.57-1.03,1.26-1.31,2.03-.3.8-.32,1.61-.33,2.45-.03,1.69-1,3.13-1.95,4.47-1.5.43-3.05.63-4.6.75-1.68.13-3.36.25-5.04.32-3.35.14-6.75.06-10-.87-1.77-.51-3.49-1.18-5.33-1.38-.24-.03-.37.14-.38.33-.05.08-.07.19-.02.31.94,2.4,2.76,4.4,5.06,5.55-1.43.68-2.91,1.37-4.12,2.39-1,.84-1.93,2.35-1.17,3.6-.04.19.03.39.27.44,1.83.37,3.63-.33,5.28-1.05,1.67-.73,3.25-1.61,4.81-2.55,2.42-.65,4.96-.59,7.45-.47-.16,1.6-.93,3.1-2.09,4.2-.05.03-.09.06-.12.11-.04.03-.07.07-.11.11-.39.34.18.9.56.56.02-.02.04-.04.06-.06.65-.05,1.19-.44,1.74-.77.65-.4,1.35-.72,2.02-1.08,1.19-.63,2.38-1.45,2.93-2.72,0,0,0-.01,0-.02,1.05.09,2.1.18,3.15.27.19,1.53.36,3.12-.13,4.61-.45,0-.62.68-.14.77.86.16,1.63-.18,2.39-.54.74-.35,1.47-.7,2.16-1.13,1.21-.76,2.25-1.78,2.76-3.13,2.39.16,4.78.24,7.17.19,0,.02,0,.04,0,.07.6,2.12,1.34,4.4,3.22,5.71.33.72,1.22.02,1.65-.26.61-.4,1.18-.87,1.57-1.49.82-1.32.55-2.92.84-4.38,0-.04,0-.07,0-.11,1.47-.06,2.94-.04,4.4.21.25.04.43-.13.48-.32.71-.02,1.42-.04,2.13-.05M30.59.86h-.01s0,0-.01,0c0,0,.02,0,.03,0Zm-2,4.31c.1-.83-.01-1.65.22-2.46.19-.63.51-1.21.94-1.71.08.01.16,0,.24-.05.08-.05.16-.08.23-.1-.04.03-.08.06-.11.1l.08-.02-.05.04-.02-.02s0,.02.04.01c-.03.02-.04.03-.05.04l.11-.04s-.09.04-.1.07c.05-.02.09-.07.13-.07-.04.04-.08.06-.03.05-.03.02-.05.03-.06.03.04,0,.03.02.09,0-.05.05.04.03-.06.09.03-.01.09-.03.1-.02-.13.05.02.05-.12.12.12-.05.08.03.16.02,0,0-.03.01-.02,0,0,.02-.03.04-.05.06.09-.05.13-.04.19-.05-.08.07-.11.05-.19.1.07-.04.09,0,.15-.05-.05.04-.02.03-.09.08.12-.06.03,0,.1-.02-.05.05-.1.06-.06.07-.01.01-.03.02-.05.02.03-.01.07-.03.11-.05.04.02-.06.05-.1.08.03,0,.12-.02.12,0-.01,0-.02.01-.04.02.08-.02.03.05.13.03,0,0-.01.01-.02.01.04-.03.09-.05.12-.06,0,0,.07,0,.01.02,0,0-.03,0-.04,0h.03c-.08.05-.04,0-.1.03.04,0,.12,0,.11.03-.08.04-.05-.03-.11.03l.02-.04c-.12.08,0-.02-.13.07,0,.04.06.02.05.06.05-.01.07-.04.11-.05.1.01-.19.14-.06.12.06-.02.16-.06.12-.01l-.1.03s.14-.04.1.02c-.04.01-.04-.01-.05,0-.06.06.06,0,.07,0l-.08.04s.11.04.14.07c-.03,0-.05.01-.08.03.06.03.04.11,0,.18h.08s-.03.01-.05.01c-.02.03.05-.02.08-.02,0,0-.04.03-.06.03.07,0,.17.04.11.11h-.02s.16-.03.1.03h-.01c0,.07.09.11,0,.2.11-.03-.03.08.12.03-.06.06-.09.06-.12.13,0,.02.1-.01.12,0l-.08.03h.09s-.09.04-.09.04h.03s.03-.02.05-.02c.04.01-.03.08-.07.09l.09.03s-.05,0-.07,0c.09,0-.08.03,0,.04.02,0,.05-.01.06-.02-.04.03-.03.06,0,.08h-.06c0,.06.05.09.06.14.02-.02.12-.05.13-.04l-.08.03c.05,0,.03-.02.1-.02,0,.02-.09.04-.12.04h.04s-.04.02-.07.03c.05,0-.07.06.02.05h-.02c.01.06.05.07.06.11.07-.02.06,0,.12,0-.02.04-.07.08-.05.11.04.02.06,0,.11,0-.07.02-.05.05-.1.04.02.04.03.05.09.09.03-.01.04-.02.06-.02.01,0-.02.03-.05.03h0c.11.04-.16.18-.01.19h0s.08.03.08.03c0,.03-.05,0-.09.02.12.03,0,.09.08.12-.19.07.04.12-.08.18h.05s-.02,0-.03.02c.04,0,.04-.02.07-.02.07.09-.04.22-.07.32,0,.04.25,0,.14.05h-.09c.12.06.02.15.11.22-.02,0-.05,0-.05,0-.06.02,0,.06.05.05,0,.01-.05,0-.07.02-.04.02.08.03.02.05-.01,0-.02,0-.03,0,.03,0,0,.05.07.03-.03.03.04.05,0,.08.08,0-.04.05.08.05-.12,0-.09.05-.04.07-.04,0-.04.02-.09.01,0,.02.03.04.09.03-.14.04.12.07-.07.1.07.06.11.11.14.17-.12,0-.01-.06-.14-.06.05.05.15.08.13.13-.02.01-.05,0-.07-.01.05.05-.01.1.05.15-.01,0-.02,0-.03,0,0,0-.02.02.04.02h-.01c.08-.02.16.03.21.03-.16-.02-.04.05-.24.02.01,0,.04.01.07.01-.01,0-.03.01-.07,0,.03.03.09.02.09.05-.03,0-.04,0-.07-.01.05.02.1.03.08.06-.02,0-.04,0-.04,0,0,.04.14.08.08.12-.11-.02-.04.01-.14.01l.03.03h.05s.07.04.03.05l-.04-.02.02.04.04-.02s.13,0,.1.03c0,0,0,.02-.06.03h0s.06.03.04.04c-.03,0-.11-.01-.13,0,.08.02.02.05.11.07-.02,0-.07,0-.08,0h.07s-.03.02-.07.02c-.01.03.13,0,.07.03,0,0-.02,0-.03,0-.03.03.04.08,0,.11-.1,0-.02-.03-.11-.03.02.05.11.11.08.16h.01c.14.01-.07.02-.01.05,0,0-.08-.02-.06-.01-.03.03.03.07.06.12h-.04s-.02.04-.04.06c.04.01.03.02.08.02-.21.04.1.14-.08.17,0,0-.03-.02-.03-.02l.02.05c.06,0,.04,0,.09,0,.03.01.06.03.06.04-.04-.03-.1-.02-.13-.01.02,0,.04,0,.06.01-.11,0,.12.02.04.05h-.03s.05.03.04.04c-.07,0-.03-.02-.09-.03,0,.02.13.06.05.07-.02-.01-.02-.02-.03-.04-.09,0-.07.01-.08.02h0s-.04.02-.04.02h.02c.18.05.02.05.14.11-.11-.05-.06-.02-.14-.03-.02,0-.05.01-.07,0,.06.03-.05.02.03.06-.03,0,0,.02-.07,0,.02.02.05,0,.08.01.08.05-.12.05-.01.12.04.05.12.07.16.12-.04,0-.09-.03-.09-.03-.04.01-.04.03-.01.05-.02,0-.04,0-.07-.01,0,.02.09.03.05.04-.03,0-.07-.02-.1-.04.02.02.06.05.08.07-.04,0-.06-.03-.09-.04.01.02.03.04.05.06-.04-.03.03-.02.06-.01v.02c.16.02,0-.06.02-.08l.11.04-.08-.05s.09.01.1.03c.06,0-.03-.03.03-.03,0,0,.01,0,.02,0l-.03-.03s.08.01.06.02c.07-.02-.07-.07.02-.06-.03-.04-.08-.02-.16-.07l.2.02-.08-.02s.01-.01.04,0c-.05-.03-.04,0-.08-.02.08,0-.02-.07.11-.05-.06-.02-.05.01-.09-.02.14.02-.02-.03.05-.04.07.02.03.03.1.02-.12-.04.03-.04.01-.06.01,0,.03,0,.05,0,0,0-.04-.01-.07-.02-.03-.02-.02-.04-.04-.07.03,0,.06-.05.1-.07h.02c-.1-.02-.07-.04-.09-.07.06,0,.08.02.1.03v-.02s-.04-.02-.05-.03l.07.02s-.08-.07-.02-.09c-.07-.01-.19,0-.23-.04.04,0,.1.01.11.02,0,0-.03-.02-.01-.02l.06.02s-.05-.02-.04-.03c.05,0,.04,0,.08,0,0,0-.02,0,0,.02.01-.01.04-.02.08-.02-.03,0-.07,0-.08-.02,0-.03.06,0,.09-.01-.04-.01,0-.02-.07-.03,0,0,.04,0,.06,0-.03-.02,0-.06-.09-.06h0s0,0,0,0c-.07-.05.06-.09.03-.13h.03s-.01-.06-.06-.08c0,0,.05-.01.08,0-.02-.02-.05-.03,0-.05.04.02.04,0,.03.02.03-.02.07-.03,0-.06.07.02.09-.01.07-.03h-.05s0-.01,0-.02h.09c.11-.03-.18-.1,0-.13-.06-.02-.05.03-.12,0,.01-.02.14-.04.14-.05.05-.03-.13-.04-.09-.07-.03,0-.12,0-.14-.03.01-.02.13-.02.16,0,0,0,0,0-.02,0,0,0,.02,0,.03,0,.03-.01.03-.04.08-.03-.03-.02-.05-.01-.07,0,.05-.03,0-.05.04-.08-.02,0-.05,0-.05,0,.04-.05-.06-.02-.07-.06.05-.02.11.01.07-.02.03-.02.08,0,.11,0-.06-.03.04-.06.05-.07l.03.02s-.01-.02-.01-.03h-.06s.01,0,.04,0c-.04-.01-.11,0-.16-.02.03-.01-.03-.04.05-.04-.03.04.08,0,.1.03,0,0,0-.01,0-.02,0,0,.02,0,.02,0,.08-.04-.09-.02-.09-.06.05,0,.09,0,.08-.01,0,.02-.08,0-.11,0,.04-.02-.03-.03-.02-.04h-.02s-.04,0-.06-.02c.04,0,.03.02.04,0-.08-.02.09-.04.03-.07.03-.01.09,0,.11-.01-.06-.03.06-.03.01-.06-.06,0-.05.01-.11-.01l.05.05-.09-.03s.04.03.03.04c-.05-.02-.04-.01-.09,0,.09-.02-.06-.04,0-.07h.16c.07-.04-.08-.07-.04-.12l-.03.02c-.06,0,0-.03-.04-.04.05,0,.07-.01.1-.02-.04,0,0-.04-.1-.04l.07-.02s-.15-.04-.13-.08c.06,0,.09-.01.14.01,0-.01,0-.02-.03-.02.03,0-.07-.03-.02-.04-.02,0-.08,0-.07-.02.01,0,.03,0,.03,0-.03,0-.04-.02-.09,0,.16-.05-.02-.1.12-.15-.02-.03-.04-.06-.04-.08.02,0,.03,0,.02,0,.05-.04-.15,0-.1-.05.08-.03.05.02.08,0,.17-.02-.03-.04.07-.08h.01c.06-.02-.07-.04-.06-.07,0,0,.02,0,.03,0-.09-.01-.12-.05-.15-.08.07,0,.04.01.1,0-.01-.01-.11.02-.13,0,.04-.01.07-.04.14-.05v.03c.1-.02,0-.03.01-.05h.04s-.12-.03-.12-.07h-.03c-.11,0,.06-.02-.02-.03l.1-.02s-.11-.04-.13-.07c.08,0,.12.03.17.05,0-.01-.03-.02-.04-.04,0,0,0,0,0,0-.08,0-.13-.03-.13-.06.2-.02.04-.09.19-.13-.08-.04.01-.11-.01-.17-.15.05,0-.02-.17.02-.01-.01-.01-.02,0-.02h0s0,0,0,0l.09-.06s.04,0,.07,0c0-.03.07-.03.1-.06-.06.02-.08,0-.07-.02l-.07.04c-.09-.03.13-.07.03-.09h.05s-.02-.08-.15-.08c.02,0,.06-.02.07-.01,0-.06-.16-.09-.1-.15h.04s-.08,0-.04-.03c.02,0,.04,0,.04-.01-.01,0-.07-.01-.05-.03h.05c.04-.07-.13-.06-.16-.09.11-.03.14-.08.15-.11h.02c0-.07-.12-.08-.18-.13.11-.07.02-.14.07-.21-.02.01-.09.02-.1.02.02-.02-.09-.01.01-.04h0c.1-.04.06-.06.06-.08l-.13.04c.18-.12-.12-.12.04-.21-.04,0-.04-.02-.08-.02l.07-.02s0-.07-.02-.11h.05s-.22.03-.23,0l.1-.05s.06-.12-.06-.13c.02,0,.05-.02.05,0,0-.02.04-.11-.1-.05.09-.04,0-.05-.06-.06l.07-.02c-.1.01-.12.02-.16,0,0-.01.05-.03.04-.01.03-.04-.07,0-.05-.03h.05s-.03-.02-.08-.01c-.03,0,0-.05.06-.08-.04.01-.09.02-.08,0,.02-.01.04-.01.05-.01.03-.06-.1-.02-.05-.08.02-.01.03-.02.04-.02.01.03.02.06.01.06.06-.03.06-.06.16-.07-.06,0-.17.01-.16-.02,0,0,.01,0,.02-.01h0s0-.01-.02-.01c0-.01.01-.02,0-.03.05-.03.02-.04.01-.05-.07.03-.06.01-.11.05,0,0,0,0,.02,0,0,0,0,0,0,0h0s.01.02.02.03c-.04,0-.07,0-.04-.02-.05.01-.09.03-.12.03.09-.06.12-.11.18-.15-.05-.02-.06-.08-.2-.04-.02,0,.03-.03.05-.04.02,0,.02,0,.04,0-.04,0-.04-.06-.13-.02.03-.05.09-.03.06-.05h.03c.1-.15-.28,0-.14-.17,0,.01-.01.02-.03.02.03-.13-.16-.14-.09-.29.01-.04-.05,0-.1,0l.07-.04-.09.02s0-.06.03-.1c.41.14.77.56,1.02.87.5.64.99,1.27,1.51,1.9,1.06,1.28,2.16,2.53,3.31,3.73,0,0,.02,0,.02.02-2.06.08-4.11.27-6.15.6-1.08.17-2.15.39-3.22.64.69-1.06,1.29-2.19,1.44-3.46Zm2.17-3.25s0,0,.01,0h0s0,0,0,0Zm.03.03s.05-.02.05-.02c-.02,0-.03.02-.04.04,0,0,0-.01,0-.02Zm.4-.28s.03,0,.04-.01c.01,0,0,.01-.01.02,0,0,0,0-.01-.01h0Zm-11.38,14.87s0,.03.03.06c0,0-.03-.01-.02-.01-.01,0-.05,0-.08,0,.1.04.11.06.17.1-.1-.02-.11-.05-.2-.08.08.03.07.05.14.07-.06-.01-.03,0-.11-.03.12.05.02.02.09.05-.07,0-.12-.04-.08,0-.04,0-.08-.04-.08-.04,0,.02.09.04.14.07.02.03-.07-.02-.12-.03.02.02.1.06.09.07-.02,0-.02,0-.04-.02.07.04-.01.04.07.09,0,0-.02,0-.02,0,.05.02.09.03.13.05,0,0,.05.04,0,.02,0,0-.02-.01-.04-.02l.02.02c-.09-.03-.03-.02-.09-.05.02.03.09.07.06.08-.08-.03-.02-.04-.1-.05h.04c-.14-.04.01-.01-.13-.06-.03.01.03.04,0,.06.04.02.07.03.11.05.07.07-.22-.06-.12.01.05.03.16.08.09.07l-.09-.05s.13.07.06.07c-.04-.02-.02-.03-.04-.03-.08-.02.05.03.04.05l-.08-.03s.05.08.06.12c-.02-.01-.05-.03-.08-.03.03.05-.04.07-.1.08l.07.04s-.03,0-.05-.02c-.03,0,.04.02.07.04,0,0-.05,0-.06-.02.05.05.1.12.01.11h-.02s.14.07.06.06h-.01s0,.09-.13.07c.1.05-.06.02.08.09-.08-.01-.1-.03-.17-.02-.01,0,.08.06.09.07l-.07-.04.07.05-.09-.04v.02s.05,0,.07.02c.03.03-.07.01-.11,0l.04.07s-.04-.03-.05-.04c.07.06-.08-.04-.02.02.02,0,.04.02.06.03-.05-.01-.06,0-.05.03l-.05-.03s0,.07-.02.1c.03,0,.11.05.12.06l-.08-.04s.03,0,.09.05c-.01,0-.09-.04-.11-.06l.02.03s-.03-.02-.06-.04c.04.03-.09-.02-.01.03h-.02s0,.04,0,.07c.07.04.05.04.1.07-.03,0-.09,0-.1.02.02.03.05.03.09.06-.06-.03-.07,0-.1-.04,0,.03,0,.04.02.1.03.01.04.01.06.03,0,.01-.03,0-.06-.02h0c.07.08-.22-.02-.11.08h0s.05.06.05.06c-.02,0-.04-.03-.08-.04.08.09-.04.04,0,.11-.18-.08-.03.08-.16.04l.04.02s-.03,0-.04,0c.03.02.04.01.06.03.01.09-.13.08-.21.12-.02.01.2.14.09.11l-.07-.05c.06.1-.06.09-.01.18-.02-.01-.04-.03-.03-.03-.06-.03-.02.03.02.06,0,0-.04-.02-.07-.03-.04-.01.05.07,0,.04,0,0-.02-.01-.02-.02.02.02-.02.02.04.06-.04,0,0,.05-.04.04.06.05-.05,0,.04.07-.1-.07-.1-.03-.06.02-.03-.02-.04-.01-.08-.04,0,.01,0,.04.06.07-.13-.06.07.11-.09.01.03.07.04.13.05.17-.1-.07.01-.04-.09-.11.02.06.09.13.05.15-.02,0-.04-.03-.05-.05.02.06-.05.05-.01.11,0,0-.02-.02-.02-.02,0,0-.02,0,.02.03h0c.07.03.12.1.15.13-.12-.1-.05,0-.2-.13,0,0,.02.03.05.05-.01,0-.03-.01-.06-.04.01.04.06.06.05.08-.02-.02-.03-.03-.05-.05.04.04.07.08.04.08-.01-.01-.03-.02-.03-.02-.01.03.08.12.02.12-.09-.08-.04-.01-.12-.07v.03s.06.02.06.02c-.01.01.04.07,0,.06l-.03-.03v.03s.04.01.04.01c0,.01.02.02.03.03-.02.01-.04.02-.06.03-.02-.02-.04-.03-.05-.04.03.03.03.04.03.05,0,0-.01,0-.02.01,0,0-.01,0-.01-.01h.01s0,.01,0,.02c0,0,0,0-.02,0,0,0,0,0,0,.01-.01,0-.03.02-.04.02l-.03-.02.02.02s0,0-.01,0c0,0,0,0-.03-.03,0,0,0,.02,0,.04-.07.04-.13.07-.2.11-.13.07-.26.16-.39.25.71-1.04,1.16-2.25,1.29-3.52.31.02.61.04.92.06Zm-.06.62s-.03,0-.05-.01c0,0,0,0,0-.01.02,0,.05.02.05.02Zm-.04-.05s0,0,0,.01h0s0,0,0-.01Zm-.78,2.08s.03.02.04.03c0,0-.01,0-.02,0-.02-.02-.04-.04-.03-.04Zm.83-.37c-.22.11-.43.22-.65.33l-.05-.03s.02.02.04.03c-.03.01-.06.03-.09.04-.02-.02-.05-.04-.04-.04,0,0,.02.01.02.01-.02-.01-.02-.03-.07-.06.15.07.03-.07.16,0,0-.02,0-.05,0-.07.01,0,.02.01.02.01.05,0-.12-.09-.06-.09.08.04.03.04.06.05.15.09,0-.04.09,0h0c.06.03-.04-.05-.01-.07,0,0,.01,0,.02.01-.07-.06-.08-.1-.08-.13.05.04.03.03.08.06,0-.01-.09-.06-.1-.08.03.01.07.02.13.06v.02c.08.04,0-.02.02-.02l.03.02s-.09-.09-.06-.11h-.03c-.08-.08.06,0,0-.05l.09.05s-.07-.08-.07-.11c.06.05.08.09.11.13,0,0,.01-.03-.03-.07,0,0,.03.03,0,.02-.06-.05-.09-.09-.08-.11.17.11.07-.02.21.05-.05-.07.06-.05.08-.09-.14-.07,0-.01-.14-.09,0-.01,0-.02,0-.01,0,0,0,0,0,0h0s.1.02.1.02c.04.02.03.03.06.04.02-.01.06.03.11.04-.05-.03-.07-.05-.04-.05l-.07-.02c-.06-.07.13.05.07-.02l.04.03s.03-.05-.08-.13c.02,0,.06.03.06.04.04-.02-.08-.14,0-.13l.03.02s-.06-.05-.02-.04c.01,0,.03.02.04.02-.01,0-.05-.05-.03-.05l.04.03c.06,0-.07-.1-.08-.14.1.06.15.05.17.04h.01s-.05-.1-.07-.16c.12.04.09-.05.17-.05-.02,0-.08-.04-.09-.05.03,0-.06-.06.03,0h0c.1.04.08.01.09,0l-.12-.07c.2.06-.02-.12.15-.06-.03-.02-.02-.03-.05-.06l.07.03s.04-.02.04-.06l.05.03s-.19-.11-.18-.13l.1.04s.11-.02.04-.09c.01,0,.04.02.05.03,0-.01.09-.02-.05-.08.09.04.02-.03-.01-.06l.07.03c-.08-.05-.1-.06-.12-.09.01,0,.06.02.04.02.04,0-.06-.04-.01-.04l.04.03s-.01-.02-.06-.05c-.02-.02.03-.02.09,0-.04-.02-.08-.05-.06-.05.02,0,.04.02.04.02.06,0-.06-.07.01-.06.02,0,.03.01.04.01-.01.02-.02.03-.02.03.06.03.08.02.16.07-.04-.03-.13-.1-.1-.1,0,0,.01,0,.02,0h0s0,0,0,0c.01,0,.02,0,.02,0,.05.02.04,0,.04-.01-.07-.03-.05-.03-.11-.05,0,0,0,0,0,.01,0,0,0,0,0,0h0s0,.01,0,.02c-.03-.02-.06-.04-.02-.03-.04-.02-.09-.05-.11-.06.1.03.16.03.22.05-.03-.04,0-.07-.12-.14-.01-.01.04,0,.06.01.01,0,0,.01.02.02-.03-.03,0-.05-.08-.09.05,0,.08.04.07.01h.03c.16.02-.2-.16,0-.14-.01,0-.02,0-.03,0,.11-.03-.03-.15.13-.16.03,0-.03-.03-.07-.06l.08.02-.08-.05c-.05-.05.2.02.09-.05h-.05s0-.03.02-.04c.64.04,1.29.08,1.93.13-.55.97-1.48,1.61-2.45,2.13Zm.41-1.55s.02.01.03.02c0,0,0,0-.02,0,0,0,0,0,0-.01h0Zm8.12,3.77c-.41.19-.86.43-1.32.55.4-1.45.26-2.99.08-4.48.97.09,1.94.18,2.92.26.09.03.11.05.17.08-.1-.01-.11-.04-.21-.07.08.02.07.05.14.06-.06,0-.03,0-.12-.02.12.04.02.02.09.05-.07,0-.12-.03-.09,0-.04,0-.08-.03-.08-.03,0,.02.09.04.14.05.02.03-.07-.01-.12-.02.02.02.1.06.1.06-.02,0-.02,0-.04-.01.07.04,0,.04.08.09,0,0-.02,0-.02,0,.05.01.1.03.13.04,0,0,.05.03,0,.02,0,0-.02-.01-.04-.02l.02.02c-.09-.02-.03-.02-.09-.04.02.02.09.07.06.07-.09-.02-.02-.04-.1-.04h.04c-.14-.04.01-.02-.14-.05-.03.02.04.04,0,.06.05.02.07.02.12.04.08.06-.23-.04-.12.02.06.02.16.06.1.06l-.1-.04s.14.06.06.06c-.04-.02-.03-.03-.04-.03-.08,0,.05.03.05.04l-.09-.02s.06.08.07.11c-.03,0-.05-.02-.08-.02.03.05-.03.07-.1.09l.07.04s-.04,0-.05-.01c-.03,0,.05.02.07.03,0,0-.05,0-.07-.02.06.04.11.11.03.11h-.02s.14.06.07.05h-.01s0,.09-.12.09c.1.04-.06.02.09.08-.08,0-.11-.02-.17,0,0,0,.09.05.1.06l-.08-.03.08.04-.1-.02.02.02s.04,0,.06.01c.03.03-.07.02-.11,0l.05.06s-.04-.02-.06-.03c.07.05-.08-.03-.02.02.02,0,.05.02.06.02-.05,0-.06.01-.04.04l-.05-.02s0,.07,0,.1c.03,0,.12.03.13.05l-.08-.03s.03,0,.09.04c-.01,0-.1-.03-.12-.04l.02.02s-.04-.02-.07-.03c.05.02-.09,0,0,.04h-.02s.01.05,0,.07c.07.03.05.03.1.06-.03.01-.09.01-.1.04.03.03.06.03.1.05-.06-.02-.07,0-.11-.03,0,.03,0,.04.04.09.03,0,.04,0,.06.02,0,.01-.03,0-.06,0h0c.08.07-.22.01-.1.09h0s.06.05.06.05c-.02.01-.04-.03-.09-.03.09.08-.04.05.02.1-.2-.05-.02.08-.15.06l.04.02s-.03,0-.04,0c.03.01.04,0,.06.02.03.09-.12.11-.18.15-.02.02.22.11.1.09l-.08-.04c.08.09-.04.1.02.18-.02-.01-.04-.02-.04-.03-.06-.02-.02.04.03.06,0,0-.04-.02-.07-.02-.04,0,.06.06,0,.04,0,0-.02-.01-.02-.01.03.02-.02.03.05.05-.04,0,.02.05-.03.04.07.04-.05.01.06.06-.11-.05-.1,0-.06.03-.03-.02-.04,0-.08-.03,0,.01.01.03.07.06-.14-.04.08.09-.09.03.04.06.07.12.08.16-.11-.05,0-.04-.11-.09.03.05.12.11.08.13-.02,0-.05-.03-.06-.04.03.05-.04.06,0,.11-.01,0-.02-.01-.03-.02,0,0-.02,0,.03.03h-.01c.08.01.14.08.18.1-.14-.08-.05.01-.22-.09,0,0,.03.02.06.04-.01,0-.03,0-.07-.03.02.03.07.05.06.07-.02-.01-.03-.02-.06-.03.04.03.08.06.06.07-.01,0-.03-.01-.03-.02,0,.03.1.1.04.11-.1-.06-.04,0-.13-.05l.02.03h.05s.05.07.02.07l-.03-.03v.03s.05,0,.05,0c.04.04.11.05.08.06,0,0,0,.01-.06,0h0s.05.04.02.04c-.03-.01-.1-.05-.12-.06.07.04,0,.04.08.09-.02-.01-.06-.03-.07-.04l.06.04s-.03,0-.07-.03c-.02.01.12.05.06.05,0,0-.01,0-.02-.02-.04.01.02.06-.02.07-.09-.04-.01-.03-.09-.06,0,.04.08.11.04.13-.01,0-.02.01-.04.02-.02-.01-.03-.02-.03-.01-.01,0,0,.02,0,.03-.18.09-.35.18-.53.26Zm1.68-3.11s.05.02.05.02c-.02,0-.03,0-.05,0,0,0,0,0,0-.01Zm0-.03s0,0,0,.01h0s0,0,0-.01Zm-.58,2.57s0-.02.04,0c0,0-.02.01-.03.02,0,0-.01,0-.02,0Zm-.21.11s.02,0,.03,0c0,0,0,0-.01,0,0,0-.02,0-.02-.01Zm.14-.05s-.01,0-.01-.01c0,0,.01,0,.02,0,0,0,0,0,0,0Zm.82-.47c-.21.13-.43.25-.65.37,0,0-.02,0-.02-.01.04,0-.02-.03,0-.03h-.02s-.03-.03-.04-.04c.03.01.02.02.03.02-.07-.05.09.01.05-.03.03,0,.08.04.1.04-.05-.04.07,0,.03-.03-.06-.02-.05-.01-.1-.05l.03.05-.07-.06s.03.04.01.04c-.04-.03-.03-.02-.08-.04.09.03-.04-.05.03-.04l.14.07c.07,0-.06-.07,0-.09h-.03c-.05-.03,0-.02-.02-.04.05.02.07.02.1.03-.04-.02.01-.02-.08-.07l.07.02s-.12-.09-.1-.1c.05.03.09.03.12.07,0,0,.02-.01-.02-.02.03,0-.06-.05,0-.04-.02-.01-.07-.04-.06-.04.01,0,.02.01.02.01-.02-.01-.03-.03-.08-.04.16.04.02-.07.15-.03,0-.02-.02-.05-.01-.07.01,0,.02.01.02.01.05,0-.13-.07-.07-.07.08.02.04.03.07.04.16.07,0-.04.09-.01h0c.06.02-.05-.05-.03-.06,0,0,.01,0,.02.01-.08-.05-.09-.08-.11-.11.06.03.03.02.09.05,0-.01-.1-.04-.11-.06.04,0,.07,0,.14.04v.02c.09.03,0-.02.02-.02l.04.02s-.1-.07-.08-.09h-.03c-.09-.06.06,0,0-.04l.1.04s-.08-.07-.09-.1c.07.04.1.07.13.1,0,0,0-.04-.04-.06,0,0,.03.02.01.02-.07-.04-.1-.07-.09-.09.19.08.07-.03.22.02-.06-.06.06-.05.06-.1-.15-.04,0-.01-.15-.07,0-.01,0-.02,0-.01,0,0,0,0,0,0h0s.1,0,.1,0c.05.01.03.02.06.03.02-.02.07.02.11.02-.06-.02-.07-.04-.05-.04h-.08c-.07-.07.14.01.07-.05l.04.03s.02-.05-.09-.11c.02,0,.06.02.07.03.03-.03-.1-.13-.01-.13l.04.02s-.07-.04-.02-.03c.02,0,.04.02.04.01-.01,0-.06-.04-.03-.04l.04.02c.06-.02-.08-.09-.1-.13.11.04.16.03.18.02h.02s-.07-.1-.1-.15c.13.02.08-.06.16-.07-.02,0-.09-.03-.09-.04.03,0-.07-.05.03-.01h0c.1.03.08,0,.09,0l-.13-.05c.2.03-.04-.12.14-.08-.03-.02-.03-.03-.06-.05l.07.03s.04-.03.03-.06l.05.02s-.2-.09-.2-.11l.11.03s.11-.03.03-.09c.02,0,.05.02.05.02,0-.01.09-.03-.06-.07.1.03.02-.03-.02-.06l.07.03c-.09-.04-.11-.05-.13-.08.01,0,.06.01.04.01.04,0-.06-.03-.02-.04l.04.02s-.01-.02-.06-.05c-.03-.02.03-.02.09,0-.04-.01-.09-.04-.07-.04.02,0,.04.01.05.02.06-.01-.07-.06,0-.06.02,0,.04,0,.04.01,0,.02-.02.04-.02.03.06.02.08,0,.17.05-.04-.03-.14-.09-.11-.09,0,0,.01,0,.02,0h0s0,0,0,0c.01,0,.02,0,.02,0,.05.02.04,0,.04-.02-.07-.02-.06-.03-.12-.04,0,0,0,0,0,.01,0,0,0,0,0,0h0s0,.01,0,.02c-.03-.02-.06-.03-.02-.03-.04-.02-.09-.04-.11-.05.1.02.16.02.23.03-.03-.04,0-.07-.14-.12-.02-.01.04,0,.06,0,.01,0,0,.01.03.02-.03-.02,0-.05-.09-.08.05,0,.08.04.08,0h.03c.16,0-.22-.14,0-.14-.01,0-.02,0-.03,0,.1-.04-.04-.15.11-.17.03,0-.03-.03-.07-.05l.08.02-.08-.04s0,0,0,0c.67.06,1.34.11,2.01.16-.47,1.06-1.34,1.88-2.32,2.49Zm.31-2.05s.03,0,.04.01c0,0,0,0-.02,0,0,0,0,0,0-.01h0Zm16.04,2.85c-.19.54-.54.99-.97,1.35-.22.19-.46.35-.71.5-.12.08-.25.15-.38.23-.05.03-.1.06-.16.09-1.8-1.15-2.45-3.31-3-5.26.56-.02,1.12-.04,1.68-.08,1.33-.09,2.67-.22,4-.31-.2,1.15-.09,2.36-.47,3.46Zm9.29-4.5c-1.23.03-2.47.06-3.7.09-.19,0-.3.11-.35.25-2.53-.33-5.08-.09-7.61.11-2.74.22-5.49.26-8.24.15-5.53-.23-11.03-.96-16.55-1.27-2.88-.16-5.85-.32-8.67.39-.08-.02-.17,0-.27.05-.02.01-.04.02-.06.03-.06.02-.11.05-.15.09-1.43.86-2.88,1.68-4.41,2.37-1.45.66-3.14,1.39-4.77,1.15-.01-.02-.02-.04-.03-.05-.36-.46-.15-1.17.11-1.62.31-.54.78-.97,1.28-1.33,1.21-.87,2.6-1.51,3.94-2.15.25-.12.24-.37.11-.55.11-.17.11-.41-.14-.52-2.1-.96-3.83-2.67-4.79-4.77,1.45.24,2.84.75,4.25,1.16,1.62.48,3.28.77,4.96.92,3.36.29,6.74.03,10.09-.21,1.91-.14,3.84-.34,5.68-.91.11-.04.18-.11.23-.19,4.56-1.11,9.26-1.57,13.95-1.35,1.04.05,2.08.14,3.12.25.06.08.16.13.3.12.12,0,.24-.01.36-.02.06.05.12.08.21.09,4.59.47,9.03,2.16,12.78,4.83.76.54,2.27,1.56,1.67,2.67-1.07.24-2.2.21-3.29.24Z"/><path d="m49.58,13.59l-.08.26.1-.06c.03-.07.04-.22-.03-.2Z"/><path d="m49.22,13.43c-.02-.06.01-.13.03-.17-.09.12-.2.33-.18.58.1-.24.11-.14.22-.43.07-.02.1.1.07.19.03-.06.09.07.14-.09-.06-.21-.16-.23-.28-.08Z"/><path d="m43.25,12.15l-.09-.09c-.02.08.05.07.09.09Z"/><path d="m48.34,13.78s.04-.03.06-.06c-.02,0-.04.02-.05.02,0,.01,0,.03,0,.04Z"/><path d="m44.93,12.11h.03s.02-.06.04-.1l-.07.1Z"/><path d="m6.98,14.04l.02-.02s-.01-.08-.02-.12v.14Z"/><path d="m37.68,11.06s0,0,0,0c.03-.02.01-.02,0,0Z"/><path d="m26.83,11.24c.13.2-.19.26,0,.48-.02-.09.16-.35,0-.48Z"/><path d="m33.89,11.48s-.04-.05-.07-.02c0,.01,0,.02.01.03.01-.03.03-.04.06,0Z"/><path d="m32.79,11.48s.01.03.02.05c.01,0,.02,0,.03-.01l-.05-.03Z"/><path d="m11.85,14.2c-.03-.06-.06-.13-.08-.19.04.16-.11.23.08.19Z"/><path d="m48.31,13.75s.03,0,.04,0c0-.03.01-.06,0-.08-.01.06-.03.08-.04.09Z"/><path d="m33.15,13.24c-.03-.08-.06-.12-.1-.15,0,.02-.02.03-.02.06l.12.1Z"/><path d="m48.91,13.6c-.13.15-.14-.09-.14-.17l.08-.04c-.02-.46-.32.03-.48-.01l.11-.32-.2.25c-.02-.09-.02-.28.06-.32-.09-.18-.11.1-.19-.09,0-.03,0-.04.01-.06l-.12.08c.03-.07.01-.23.07-.18-.18-.21-.35.21-.4-.05l.02-.02c-.29.08-.06.24-.3.5l-.07-.61-.06.24s-.08-.04-.06-.13c-.13.15,0,.11-.07.26-.11-.24-.39.06-.38-.33-.07.18.11.16-.05.27,0-.42-.18.05-.28-.15.06-.21.17-.08.07-.29-.12.35-.23-.11-.35-.05-.01.09-.04.12-.08.14.03-.09.05-.13.08-.14,0-.04,0-.09,0-.16-.03-.01-.06.2-.09.3-.09.04-.22-.03-.35.03.02-.1-.32-.2-.47-.32v-.05c-.05.29-.22.21-.35.26.02-.17.05-.24.13-.31h-.12c-.04.08-.08.12-.16.15l.05-.21c-.16,0-.34.22-.53.06-.03.2.1.58-.13.7,0-.11.02-.3.08-.34-.02.01-.07.08-.11.03l.1-.18c-.08-.09-.06.15-.13.12.02-.16-.04-.12-.02-.24.02-.01.06.07.09.01-.08-.04-.17-.14-.19-.26,0,.09-.02.21-.08.22-.16,0-.03-.19-.12-.28-.05.1-.14-.02-.16.22-.05,0-.04-.12-.05-.18-.09.1-.38,0-.31.25l.02.02s0,0-.01,0c-.29.21-.54-.19-.81-.11v-.08c-.16.08-.35.02-.47.18-.05,0-.1-.15-.07-.24-.13.05-.15.14-.31,0,.13-.13-.03-.12.13-.09-.15-.08-.18-.21-.36,0,.07-.2-.1-.26-.18-.21l.1.15c-.09.02-.16,0-.23-.02l.06-.26c-.3-.35-.62.51-.82-.05-.1.18.17.14.07.35-.14-.05-.27-.44-.32-.44-.19-.16-.21.38-.42.26.02.1.03.35-.13.43-.14-.04-.16-.41-.06-.48.04,0,.05.03.05.06.05-.03.11-.07.06-.17l-.02.09c-.07-.1-.27-.1-.22-.25-.12.08-.06.15.02.21-.18-.15-.3-.02-.49-.12.03.05.05.17.02.16-.28-.13-.13.17-.33.21-.1-.15.05-.34-.15-.23-.12-.1-.02-.25.04-.33-.19.18-.33-.13-.43-.17l.1-.07c-.06.04-.1.04-.15.04l.05.19c-.05-.04-.1-.04-.1-.12-.06.12.03.32-.09.48-.07-.1-.23.09-.24-.16.23.09-.02-.25.18-.29-.04.03-.08.03-.14,0,0-.03,0-.05.02-.07-.22-.23-.11.28-.34.27.03-.14-.05-.27-.09-.24.09,0,.04.24-.05.34-.14-.11-.16.08-.24.06l.09.05c-.03.14-.11.12-.21.16,0-.11.09-.07.06-.12-.12.25-.25-.26-.41-.1-.07-.1,0-.27-.07-.33-.18.18-.19-.2-.38-.05.05.19.06.14-.07.33l.31-.13-.2.27c.09,0,.2-.12.25-.09-.1.15-.08.11-.04.27-.12-.29-.25.16-.4-.03v-.47c-.21-.21-.38.24-.67.12l.09.08c-.04.19-.17.03-.27.1,0-.16-.05-.21-.09-.31,0,.12-.21-.01-.23.3l-.13-.21c-.23-.09-.26.45-.48.39.07-.17-.03-.28.11-.4-.07,0-.14-.03-.14.08-.04-.1-.2.21-.27.06-.03.07-.04.23-.12.22,0-.03,0-.08,0-.08,0,.08-.13.11-.06.28-.23-.49-.63.04-.83-.39-.16.05-.35.1-.5.12,0-.05,0-.08.03-.06-.2-.15-.12.45-.35.29-.12-.25.12-.14.05-.23-.03-.52-.28.07-.43-.23l.04-.03c-.12-.18-.29.2-.48.16,0,0,0-.05,0-.08-.13.26-.38.35-.56.43.06-.2.08-.11.05-.31-.08.03.03.33-.14.39-.05-.11-.17-.21-.19-.43h.16c-.08-.3-.2,0-.28-.05v-.12c-.23.04-.23.36-.49.34l.03.09c-.14.31-.12-.17-.26.06l-.05-.31c-.09.08-.32.31-.49.37.09-.23.28-.35.4-.49-.09,0-.31.03-.36.18.04-.03.08-.11.12-.06-.11.25-.26.37-.44.37.03-.61-.48-.15-.62-.62-.32.23-.65-.09-1.02-.04.14.47-.11.02-.08.5-.08.03-.11.02-.13,0,0,0,0,0,0,0h0s-.27-.28-.27-.28c-.07-.14.08-.11.07-.22-.19-.03-.09-.2-.22-.33.03.17-.06.25-.17.19l.16.22c-.26.27-.24-.4-.51-.14l.08-.16c-.14.09-.52,0-.64.4-.03-.06-.06-.19,0-.22-.34-.05-.73.44-1,.21l.02-.12c-.06.04-.1.23-.18.11,0-.05.02-.12,0-.13-.03.04-.16.21-.24.15l.07-.14c-.33-.15-.49.34-.76.43-.01-.35-.27-.45-.4-.5v-.05c-.38-.03-.63.32-.97.47-.24-.37-.75-.13-1.11-.32.06.06,0,.27-.05.31-.09-.07-.21.26-.22-.07h.03c-.08-.31-.24-.21-.38-.21v.42c-.38-.59-.88.28-1.11-.25-.08.11-.18.12-.25.23v-.23c-.25-.04-.36-.06-.65.01l.05-.17c-.16,0-.15.66-.3.69l-.07-.33c-.28.03-.59-.24-.84.09,0-.05,0-.15.04-.16-.13,0-.53-.18-.44.27-.03-.3-.29,0-.43.14v-.22c-.1.29-.09.37-.26.47-.03-.02-.05-.1-.03-.13-.1-.02-.07.21-.24.13l.05-.15c-.15,0-.13.07-.19.25-.08.1-.28-.03-.32-.22,0,.12-.07.3-.16.25-.02-.07,0-.12.02-.15-.26-.12-.33.3-.52.1-.01-.07-.03-.11-.04-.13.19-.02.35-.02.34,0-.02-.2-.18-.22-.09-.52-.11.17-.28.52-.45.44,0-.02-.02-.04-.03-.07v-.02s-.05,0-.08.04c-.05-.03-.09-.05-.13-.05-.04-.17-.19-.07-.27-.07.03.22-.07.2.04.37-.01-.01.01-.03.06-.04.01,0,.02-.01.03-.03,0,0,0,.01,0,.02.05-.01.12-.03.19-.04-.05.12-.1.22-.2.11-.02.15-.05.3-.06.37-.14-.3-.37-.44-.42-.63-.22.15-.55.15-.64.59-.06.06-.09-.11-.13-.17.03-.05.08-.05.09-.11-.12.12-.39.09-.38.39-.19-.11.06-.28-.17-.2l.02-.09c-.52-.4-.63.85-1.22.33.04.03.06.05.08.09-.62-.18-1.14.44-1.77.12-.18-.06-.16.13-.23.29l-.08-.23-.12.3c-.2.24-.52-.5-.75-.07l.07.15c-.11,0-.32.16-.34-.03,0,.03,0,.17-.06.1l-.03-.12-.22.26c-.22-.05-.07-.5-.37-.46-.1.07-.24.42-.18.5.05,0,.13.05.16.18l-.09.08c.06.37.06.75.36.96l.12-.26.09.17-.14.04c.12.15.14,0,.17-.12.03.09.07.15.11.18l.1-.38c.05.14-.02.3.11.35.05-.18-.14-.3-.03-.44.11.15.12.29.19.13.03.09.02.15,0,.2.06-.13.22-.09.22-.29.12.19.28-.11.34.24.01-.09.1-.3.17-.33-.07.44.3-.03.34.42.04-.39.35-.23.51-.47,0,.03-.02.09-.04.08.11.01.16.12.24.18-.04-.31.11-.41.17-.61.18.27-.02.38.07.65-.05-.25.18-.29.1-.49.13.17.1.07.19.32-.05-.39.08-.08.13-.33.17.17.1.35.23.21.09.11-.02.26-.02.26.16-.02.03-.3.04-.47.18-.11.12.2.21.34.11-.09.16-.38.25-.38.01.05.03.06.02.12.09-.25.38-.07.48-.38.01.02.02.05.03.07-.05-.14-.07-.29-.08-.4.07-.02.11-.2.16-.02-.05,0-.04.08-.05.14l.06-.09c.11.26-.09.11-.06.31.14-.11.28-.36.4-.3.06.26-.25.13-.07.35l-.19-.08c.19.4-.11-.01.08.42.24.04.24-.18.48-.13.03-.16-.05-.22-.02-.37.29-.31.35.64.54.25.04-.19.02-.53.22-.37l-.02.31c.23,0,.07-.45.33-.28-.03.12-.16.12-.13.15.18.22.09-.19.2-.2l.06.27c.23-.07.47-.3.73-.38,0,.08-.04.17.03.25.32-.17.72-.04,1.06.08l.1-.25s.06.1.04.15c.13.07,0-.15.04-.25.07-.02.11.12.07.2.2-.22.59-.49.85-.26l-.04.07c.19.08.16-.5.35-.29l-.03.04c.41.07.83-.19,1.16.14.03-.34.4.12.4-.35.24.22.19.3.52.44.09.02.11-.3.21-.36l.02.24.13-.27.1.29.09-.07s-.09-.1-.09-.18c.15-.12.39.15.4.27l.35-.23c0,.1-.06.14-.11.2.18-.26.05.26.22.02-.03-.05,0-.15,0-.2.1.14.3.13.45.06l-.02.17c.27.03.57-.12.87-.13-.11-.07-.1-.37-.01-.4l.05.26c.05-.16-.1-.09.01-.29.12.02.09.29.03.38l.13-.1c.01.08-.02.12-.02.22.05-.16.25.25.32-.03v.08c.32-.01.45-.11.7-.13,0-.22.09-.18.16-.36.19.06.4.23.62.21.15-.12.04-.19.1-.33.02.2.24.18.13.33.26-.04.34-.05.67-.23-.04-.08-.08-.12-.06-.19.06-.04.14.08.14.18l-.02.02c.37-.32.88.57,1.17.14l-.02.02.31-.23c.14.03-.08.16.03.28.33-.35.53.04.8-.2.22.6.76-.05,1.05.33l-.02-.14c.07-.14.09.08.15.11,0-.11-.08-.13-.04-.2.63-.18,1.31.19,1.96.31.24.04.13-.73.43-.4l-.08.26c.48-.32.98,0,1.45-.26-.03.06-.03.14-.07.14.1.19.37,0,.37-.15.07.02.02.14.06.22.1.11.25-.24.3-.05,0,.03-.03.06-.05.08.06-.09.3.02.24-.2.18.11.34-.1.48.03.09-.25.3.12.33-.23-.01.36.31.29.42.12-.04.11.1.11.05.26.13,0,.24-.07.22-.26.23.43.47-.35.6.21.38-.19.73-.32,1.07-.41-.01.36-.38.04-.36.41.32-.15.51-.46.82-.37.08.05-.05.16-.08.22.32-.15.61.04.9-.15,0,.03-.03.07-.06.1.06-.01.13.06.13-.11l-.06.04c-.08-.24.23-.49.25-.62-.11.47.28.12.11.71.04-.03.09-.11.08-.22.05.03.07.1.01.22.2-.08.14-.26.32-.25,0,.08-.04.11-.06.2.1-.15.19-.3.35-.23-.01.05,0,.11-.04.11.26-.02.47-.39.75-.23-.1.34.09.12.09.42l.16-.08-.05-.15c.14.01.27-.2.38-.09l-.11.12.26-.04-.14-.12c.15-.14,0-.38.18-.28-.04.03.14.01.2.19h0c.07-.09.15-.19.25-.11.02.1-.04.33-.03.39.08-.24.32-.05.43-.31-.03.06-.04.22-.04.25l.07-.2c.06.07.07.1.05.22.19.05-.03-.38.18-.2-.02.02-.01.05-.05.07.22.1.45-.1.65.02.04.3-.19.06-.14.32.3-.03.65-.31.94-.21l-.05-.04c.08-.42.2.23.36.04-.04.03-.07.23-.05.18.19.09.42-.07.73-.17l-.05.1c.11.11.3.09.42.15.05-.1.12-.08.09-.24.33.65.78-.25,1.07.3-.04,0-.11.08-.08.09l.31-.07c0-.19-.03-.12-.07-.26.05-.1.14-.18.22-.17-.15.11-.03.29.01.4,0-.06.02-.12.02-.17.12.34.07-.37.25-.12l-.02.09c.08-.04.17-.16.25-.12.01.22-.1.09-.12.26.12,0,.28-.37.37-.15-.06.05-.13.05-.19.1.09.26.11.2.19.25h0s.19.13.19.13l-.04-.07c.21-.53.32-.07.56-.4-.24.32-.06.19-.1.43.04.07.11.16.08.22.12-.18.14.17.31-.1,0,.08.1.02.06.21.13-.05-.01-.14,0-.23.22-.24.41.37.73.04.25-.12.33-.38.57-.48.06.13-.1.27-.1.27.11.13.2.12.32.04-.03.06-.01.12,0,.22.09,0,.1-.27.2-.14-.03.08-.07.22-.13.3.12-.06.24-.19.36-.24.01.14-.09.2-.14.28.13-.05.34-.08.4-.29l-.07-.09s0,.19-.04.22Zm-35.03-1.51s0,.02,0,.03c0-.04,0-.08,0-.11.05-.04.07,0,.08.05-.02,0-.05.02-.09.04Zm.47,1.44s.04-.01.08-.03c0,0,0,0,0,0-.03,0-.06.02-.08.02Zm.26-.06c-.02-.08-.02-.16.02-.16-.01.05.07.09.12.15-.04,0-.09,0-.14,0Z"/><path d="m15.83,12.16s.02,0,.03,0c-.02-.01-.03-.01-.03,0Z"/><path d="m13.83,12.31s0,.02-.02.02c.01.02.02.03.04.05,0-.02,0-.05,0-.07,0,0-.02,0-.03,0Z"/><path d="m43.29,12.19s0,.02.01.03c0-.01,0-.02,0-.03h0Z"/><polygon points="19.21 13.51 19.21 13.45 19.18 13.5 19.21 13.51"/><path d="m46.33,13.46s.02-.07.02-.09h0s-.02.09-.02.09Z"/><path d="m36.98,12.99s-.02,0-.02,0c-.05.04-.02.03.02,0Z"/><path d="m39.78,12.58s-.06.08-.1.1c.05.02.09.03.1-.1Z"/><path d="m33.86,13.25s0,0,0,0c0,0-.01,0-.02,0h.02Z"/><path d="m39.55,12.67s.09.04.13.01c-.04-.02-.09-.04-.13-.01Z"/><path d="m48.89,13.88s0-.03,0-.04l-.04.02h.03Z"/><path d="m49.01,13.78l-.07.05s.05.01.07-.05Z"/><path d="m47.86,13.66c.05.03.12.19.21.15l.02-.06c-.05.12-.15-.21-.22-.09Z"/><path d="m47.22,12.42c-.22-.29.03.2-.23.13l.19.09c-.02-.09-.06-.21.04-.22Z"/><path d="m46.41,12.18c-.08.07-.1.09-.02.17.11-.03.01-.12.02-.17Z"/><path d="m41.94,11.69c-.09.02,0,.08-.03.2l.03-.2Z"/><polygon points="41.05 13 41.1 12.82 40.98 12.87 41.05 13"/><polygon points="40.61 11.36 40.47 11.42 40.57 11.39 40.61 11.36"/><path d="m32.99,11.28l.03.25c.06-.04.07-.33-.03-.25Z"/><path d="m29.55,11.47c.07.02.15.11.18.08-.04-.13-.13-.21-.18-.08Z"/><polygon points="20 11.36 19.88 11.43 19.94 11.44 20 11.36"/><path d="m31.27,7.54s.07.02.06,0l-.08-.03.02.02Z"/><path d="m31.39,7.51s-.03.01-.06,0c.02,0-.02.01.03.03.07,0,.08-.01.02-.04.02,0,.04.01.06.01-.04-.02-.11-.05-.19-.06.08.03.04.03.14.06Z"/><path d="m31.27,7.33s.01,0,.02.01c0,0,0,0,0-.01h-.01Z"/><path d="m31.79,6.83h0s.02.01.03.01h-.03Z"/><path d="m31.7,3.79s.12,0,.16-.03c-.06.03-.09-.02-.16.03Z"/><path d="m31.91,4.96s0,0,0,0c.01,0,.02,0,0,.01,0,0,.02,0,0-.01Z"/><path d="m31.89,4.79s0,0-.01,0h0s.01,0,.01,0Z"/><path d="m30.48,1.59s.04-.03.06-.04c-.05.03-.07.01-.06.04Z"/><path d="m31.28,7.33s0,0,0,0c.01,0,.02,0,.03,0-.02,0-.03,0-.03-.01Z"/><path d="m31.31,4.89s.04-.01.05-.02c0,0-.01,0-.02,0l-.03.02Z"/><path d="m31.94,5.93s-.02,0-.03,0c0,0,0,0,0,0h.03Z"/><path d="m31.8,4.15s.01.01.02.02c.01,0-.01-.01-.02-.02Z"/><polygon points="31.33 7.44 31.33 7.44 31.33 7.44 31.33 7.44"/><polygon points="31.62 7.28 31.62 7.28 31.62 7.29 31.62 7.28"/><path d="m30.33,1.46s-.03.01-.03,0c0,0,.01,0,.03,0Z"/><path d="m31.4,7.46s-.05,0-.07-.02c.01,0,.02.02.04.02h.03Z"/><path d="m31.1,1.7h.02s0-.01,0-.01c0,0,0,0,0,0,0,0,0,0-.01.01Z"/><path d="m31.74,6.55s0,0,0,0h0s0,0-.01,0Z"/><polygon points="30.91 2.7 30.93 2.69 30.91 2.69 30.91 2.7"/><path d="m31.36,7.01s.02,0,.03,0h0s-.03,0-.03,0Z"/><path d="m31.58,5.96s-.03-.01-.03-.02c0,0,0,.01.03.02Z"/><polygon points="31.32 5 31.32 5 31.32 4.99 31.32 5"/><path d="m31.24,7.41h0s0,0,.01,0h0Z"/><path d="m31.3,7.26s-.06.01-.05.03h.02s.07,0,.03-.03Z"/><path d="m31.67,7.17l-.03.03s.07,0,.07.02c.09-.02-.06,0-.04-.05Z"/><polygon points="31.5 6.15 31.45 6.16 31.51 6.17 31.5 6.15"/><polygon points="31.99 6.11 31.97 6.08 31.98 6.1 31.99 6.11"/><path d="m31.96,4.81h-.08s.11.01.08,0Z"/><path d="m31.82,4.27s.07-.03.02-.03c0,.01-.03.03-.02.03Z"/><polygon points="31.6 2.62 31.63 2.63 31.6 2.61 31.6 2.62"/><path d="m29.83,19.33s.1.06.15.06c-.07-.01-.07-.05-.15-.06Z"/><path d="m29.59,20.07s0,0,0,0c0,0,.01,0,0,0,0,0,.02,0,0,0Z"/><path d="m29.63,19.97s0,0-.01,0h0s.01,0,.01,0Z"/><path d="m29.94,17.6s.04,0,.07.01c-.05-.01-.06-.04-.07-.01Z"/><path d="m29.07,19.77s.04.01.05.01c0,0,0,0-.02,0h-.03Z"/><path d="m30.36,17.99h.02s0,0,0,0c0,0,0,0,0,0,0,0-.01,0-.02,0Z"/><polygon points="29.66 18.37 29.68 18.37 29.67 18.36 29.66 18.37"/><polygon points="29.04 19.84 29.04 19.84 29.04 19.83 29.04 19.84"/><polygon points="28.89 20.62 28.85 20.61 28.9 20.65 28.89 20.62"/><path d="m29.68,20.01l-.08-.03s.1.05.08.03Z"/><path d="m29.74,19.65s.07.01.03,0c0,0-.04,0-.03,0Z"/><polygon points="30.26 18.68 30.29 18.69 30.27 18.67 30.26 18.68"/><path d="m19.38,18.52s.09.08.14.08c-.06-.02-.06-.06-.14-.08Z"/><path d="m19.08,19.12s0,0-.01,0h0s.01,0,.01,0Z"/><path d="m19.71,16.81s.04.01.06.02c-.05-.02-.06-.04-.06-.02Z"/><path d="m18.57,18.82s.04.02.05.02c0,0,0,0-.01-.01h-.03Z"/><path d="m20.09,17.24h.02s0,0,0,0c0,0,0,0,0,0,0,0-.01,0-.02,0Z"/><polygon points="19.35 17.54 19.37 17.54 19.36 17.53 19.35 17.54"/><polygon points="18.53 18.89 18.53 18.89 18.53 18.89 18.53 18.89"/><path d="m19.25,18.82s.07.02.03,0c0,0-.04,0-.03,0Z"/><polygon points="19.91 17.92 19.93 17.94 19.92 17.92 19.91 17.92"/><polygon points="54.12 14.32 54.12 14.33 54.12 14.33 54.12 14.32"/></svg>