<?xml version="1.0" encoding="UTF-8"?><svg id="a" xmlns="http://www.w3.org/2000/svg" viewBox="0 0 54.06 29.38"><defs><style>.b{fill:#ff931e;}.c{opacity:.25;}</style></defs><g class="c"><path class="b" d="m50.97,4.94c-.53-.47-1.4-.35-1.92.1-.2-.4-.56-.71-1.11-.8C34.49,2.06,20.77,2.38,7.32.21c-.08-.01-.16-.01-.24-.01-.17-.1-.38-.16-.61-.18-2.41-.22-3.56,1.98-4.23,3.93-.67,1.94-1.25,3.92-1.67,5.93-.83,3.98-.85,8.17.73,11.97.45,1.08,1.63,1.09,2.35.54,15.1,5.47,31.2,6.74,47.14,6.99,1.69.03,2.19-2.25,1.02-2.87.17-.15.3-.33.36-.56.94-3.65,1.63-7.38,1.86-11.14.22-3.59-.21-7.35-3.04-9.87ZM5.79,6.04h0s-.03-.03,0,0Zm-.34,4.89s0,0,0,0c-.03.03-.05.04,0,0Z"/></g><path d="m50.97,4.94c-.53-.47-1.4-.35-1.92.1-.2-.4-.56-.71-1.11-.8C34.49,2.06,20.77,2.38,7.32.21c-.08-.01-.16-.01-.24-.01-.17-.1-.38-.16-.61-.18-2.41-.22-3.56,1.98-4.23,3.93-.67,1.94-1.25,3.92-1.67,5.93-.83,3.98-.85,8.17.73,11.97.45,1.08,1.63,1.09,2.35.54,15.1,5.47,31.2,6.74,47.14,6.99,1.69.03,2.19-2.25,1.02-2.87.17-.15.3-.33.36-.56.94-3.65,1.63-7.38,1.86-11.14.22-3.59-.21-7.35-3.04-9.87ZM5.89,3.25c.09-.1.15-.21.28-.26-.01,0-.05.06-.06.06.1,0,.2,0,.29,0,.16.09.34.17.56.2.13.02.25.03.38.05.07.82.1,1.65.11,2.47-.28-.6-.76-1.16-1.44-1.24-.3-.03-.56.03-.79.15.08-.22.16-.45.25-.66.11-.27.24-.54.43-.77Zm-.04,2.83c.16.18.27.4.33.65.15.6.18,1.31.18,1.94,0,.06,0,.11,0,.17-.66.09-1.29.4-1.79.85-.03-.17-.12-.31-.25-.41.12-.37.25-.74.41-1.11.15-.35.31-.7.49-1.04.08-.15.17-.3.26-.45.1-.17.29-.37.35-.55-.01.04.01,0,.04-.05Zm-.06-.04h0s-.03-.03,0,0Zm-.34,4.89s0,0,0,0c-.03.03-.05.04,0,0Zm.34,1.35s-.05-.02-.08-.03c-.19-.01-.42.02-.56.16-.04.03-.08.06-.12.09-.03.01-.06.03-.09.04-.05,0-.09.02-.14.02-.06,0-.12-.01-.17-.02-.06-.02-.13-.04-.19-.07-.05-.03-.09-.06-.14-.1-.02-.03-.05-.06-.07-.08-.03-.06-.06-.11-.07-.18,0,.03.02.06.02.09-.01-.04-.03-.08-.04-.12.36.08.77-.07.9-.45.04-.12.09-.23.14-.34,0-.01.02-.03.02-.04.03-.05.07-.1.1-.15.04-.05.08-.11.13-.16,0,0,.02-.02.03-.03.09-.08.18-.17.28-.24.05-.03.09-.07.14-.1.01,0,.02-.01.03-.02.1-.05.2-.1.31-.14-.09.63-.24,1.25-.43,1.85Zm-1.94,2.64c-.19-.32-.23-.74-.22-1.16.14.09.28.16.44.21.32.1.66.13,1,.09-.09.19-.18.38-.29.56-.1.17-.27.56-.48.6-.18.03-.37-.17-.45-.3Zm-.75,1.4c.48.37,1.09.54,1.7.34.63-.2,1.05-.78,1.38-1.39-.07.25-.13.51-.21.76-.14.47-.79,3.21-1.62,2.94-.29-.1-.57-.1-.82-.04-.22-.86-.37-1.73-.43-2.61Zm47.81-1.07c-.27,3.23-.8,6.45-1.61,9.59-.14.53-.07,1.07.22,1.48-14.24-.29-28.61-1.43-42.2-5.88,1.4-1.88,2.02-4.97,2.41-6.83.69-3.24.88-6.57.68-9.88,12.34,1.63,24.86,1.55,37.17,3.53.51.08.91-.07,1.19-.34.1.17.23.34.39.48,2.1,1.88,1.97,5.29,1.75,7.84Z"/><path d="m18.73,8.92c-1.41,1.93-.95,4.54.83,6.04-.69,1.78-.3,3.85.82,5.38,1.4,1.92,3.85,2.74,6.15,2.67,2.64-.09,5.08-1.41,7.08-3.05,2.07-1.7,3.8-3.85,4.64-6.42.02-.07.02-.13.02-.2.33-.23.48-.65.13-1.02-3.5-3.6-8.57-4.52-13.35-5.12-2.27-.28-4.83-.32-6.32,1.73Zm18.12,4.02s-.02.02-.02.03c-.68,2.09-1.98,3.86-3.61,5.31-.9.81-1.9,1.55-2.98,2.12.09-.46-.22-1.02-.83-.96-.69.07-1.21-.74-.92-1.34.41-.86,1.31-1.37,1.71-2.26.54-1.21-.17-2.34-1.09-3.11-.42-.35-1.13-.71-1.29-1.27-.04-.13-.04-.25.03-.38.07-.14.07-.14.18-.11.97.19,1.14-1.33.18-1.52-1.14-.22-2.02.97-1.93,2.02.12,1.43,1.53,1.91,2.32,2.87.66.8-.18,1.46-.72,2.05-.69.76-1.21,1.68-.91,2.73.28.98,1.13,1.69,2.11,1.82-.55.21-1.12.37-1.71.46-1.89.3-4.05-.12-5.4-1.56-1.21-1.29-1.56-3.21-.75-4.79.6.31,1.2.62,1.81.93.16.08.42.06.58,0,.17-.07.35-.24.41-.42.06-.18.08-.4,0-.58-.09-.2-.23-.32-.42-.41-.72-.37-1.44-.74-2.16-1.11-.16-.08-.42-.06-.58,0-.13.05-.24.17-.33.29-1.48-1.27-1.42-3.69.34-4.72,1.63-.96,3.98-.34,5.73-.09,3.64.53,7.53,1.42,10.29,4Z"/><path d="m18.27,15.27c-.08-.43-.44-.68-.86-.65-.05,0-.11,0-.16,0,0,0,0,0,0,0-.1,0-.19,0-.29-.01-.19-.01-.39-.04-.58-.08-.05-.01-.1-.02-.15-.03,0,0,0,0,0,0-.09-.03-.19-.05-.28-.09-.19-.07-.39-.15-.57-.24-.04-.02-.08-.04-.12-.06,0,0,0,0,0,0,0,0,0,0-.02-.01-.08-.05-.17-.1-.25-.15-.09-.06-.17-.13-.26-.19.21-.04.42-.08.63-.12.39-.08.73-.44.65-.86-.07-.39-.44-.73-.86-.65-.67.13-1.35.27-2.02.4-.59.12-.83.74-.49,1.23,1.11,1.62,3.06,2.5,5,2.38.4-.02.72-.48.65-.86Z"/></svg>